<svg width="25" height="32" viewBox="0 0 25 32" fill="none" xmlns="http://www.w3.org/2000/svg">
<path d="M11 27.0052C13.9174 27.0052 16.7153 25.8463 18.7782 23.7834C20.8411 21.7205 22 18.9226 22 16.0052C22 13.0879 20.8411 10.29 18.7782 8.22707C16.7153 6.16417 13.9174 5.00525 11 5.00525C8.08262 5.00525 5.28473 6.16417 3.22183 8.22707C1.15893 10.29 0 13.0879 0 16.0052C0 18.9226 1.15893 21.7205 3.22183 23.7834C5.28473 25.8463 8.08262 27.0052 11 27.0052ZM9.96875 19.7865V17.0365H7.21875C6.64727 17.0365 6.1875 16.5767 6.1875 16.0052C6.1875 15.4338 6.64727 14.974 7.21875 14.974H9.96875V12.224C9.96875 11.6525 10.4285 11.1927 11 11.1927C11.5715 11.1927 12.0312 11.6525 12.0312 12.224V14.974H14.7812C15.3527 14.974 15.8125 15.4338 15.8125 16.0052C15.8125 16.5767 15.3527 17.0365 14.7812 17.0365H12.0312V19.7865C12.0312 20.358 11.5715 20.8177 11 20.8177C10.4285 20.8177 9.96875 20.358 9.96875 19.7865Z" fill="white"/>
</svg>
