<svg width="47" height="31" viewBox="0 0 47 31" fill="none" xmlns="http://www.w3.org/2000/svg">
<path d="M17.5926 21.8806L19.5941 10.135H22.7956L20.7926 21.8806H17.5926ZM32.3592 10.3882C31.7251 10.1503 30.7311 9.8949 29.4899 9.8949C26.3264 9.8949 24.0982 11.488 24.0791 13.7711C24.0613 15.4589 25.67 16.4005 26.8843 16.9622C28.1306 17.5381 28.5494 17.9052 28.5434 18.4192C28.5355 19.2066 27.5483 19.5661 26.628 19.5661C25.3467 19.5661 24.6659 19.3881 23.6145 18.9497L23.2018 18.7631L22.7526 21.3924C23.5004 21.7204 24.8831 22.0043 26.3189 22.0191C29.6843 22.0191 31.869 20.4442 31.8938 18.006C31.9058 16.6698 31.0529 15.6531 29.2058 14.8147C28.0868 14.2714 27.4015 13.9088 27.4087 13.3586C27.4087 12.8704 27.9888 12.3483 29.2423 12.3483C30.2891 12.332 31.0476 12.5603 31.6385 12.7983L31.9253 12.9338L32.3592 10.3882ZM40.5978 10.1348H38.124C37.3577 10.1348 36.7841 10.344 36.4476 11.1089L31.6929 21.8729H35.0548C35.0548 21.8729 35.6043 20.4256 35.7286 20.1078C36.096 20.1078 39.3619 20.1128 39.8288 20.1128C39.9245 20.5241 40.2183 21.8729 40.2183 21.8729H43.189L40.5978 10.1345V10.1348ZM36.6728 17.7194C36.9376 17.0427 37.9484 14.436 37.9484 14.436C37.9295 14.4673 38.2112 13.756 38.3728 13.315L38.5892 14.3276C38.5892 14.3276 39.2022 17.1314 39.3304 17.7193H36.6728V17.7194ZM14.8748 10.1348L11.7404 18.1448L11.4065 16.5171C10.823 14.6407 9.00504 12.6077 6.97266 11.5899L9.83868 21.8619L13.226 21.8581L18.2662 10.1347L14.8748 10.1347" fill="#0E4595"/>
<path d="M8.81275 10.1344H3.6503L3.60938 10.3788C7.62571 11.351 10.2832 13.7006 11.3866 16.524L10.264 11.1264C10.0703 10.3826 9.50821 10.1606 8.81287 10.1347" fill="#F2AE14"/>
</svg>
