<svg width="90" height="50" viewBox="0 0 90 50" fill="none" xmlns="http://www.w3.org/2000/svg">
<rect width="90" height="49.9136" rx="4.60016" fill="#284F60"/>
<path d="M10.5086 9.36201V11.2803H10.194V9.96647L9.60886 11.2803H9.39081L8.80291 9.96647V11.2803H8.48826V9.36201H8.82775L9.50121 10.8663L10.1719 9.36201H10.5086ZM10.8173 10.513C10.8173 10.3602 10.8486 10.225 10.9112 10.1072C10.9756 9.98947 11.0621 9.89839 11.1706 9.83398C11.281 9.76774 11.4025 9.73462 11.5349 9.73462C11.6546 9.73462 11.7585 9.75854 11.8468 9.80638C11.937 9.85238 12.0088 9.91035 12.0621 9.98027V9.75946H12.3795V11.2803H12.0621V11.0539C12.0088 11.1257 11.9361 11.1855 11.8441 11.2334C11.7521 11.2812 11.6472 11.3051 11.5294 11.3051C11.3988 11.3051 11.2792 11.272 11.1706 11.2058C11.0621 11.1377 10.9756 11.0438 10.9112 10.9242C10.8486 10.8028 10.8173 10.6657 10.8173 10.513ZM12.0621 10.5185C12.0621 10.4136 12.04 10.3225 11.9959 10.2452C11.9536 10.168 11.8974 10.1091 11.8275 10.0686C11.7576 10.0281 11.6822 10.0079 11.6012 10.0079C11.5202 10.0079 11.4448 10.0281 11.3749 10.0686C11.3049 10.1072 11.2479 10.1652 11.2037 10.2425C11.1614 10.3179 11.1403 10.4081 11.1403 10.513C11.1403 10.6179 11.1614 10.7099 11.2037 10.789C11.2479 10.8681 11.3049 10.9288 11.3749 10.9711C11.4466 11.0116 11.5221 11.0319 11.6012 11.0319C11.6822 11.0319 11.7576 11.0116 11.8275 10.9711C11.8974 10.9307 11.9536 10.8718 11.9959 10.7945C12.04 10.7154 12.0621 10.6234 12.0621 10.5185ZM12.9529 9.55797C12.8959 9.55797 12.848 9.53865 12.8094 9.50001C12.7707 9.46137 12.7514 9.41353 12.7514 9.35649C12.7514 9.29945 12.7707 9.2516 12.8094 9.21296C12.848 9.17432 12.8959 9.155 12.9529 9.155C13.0081 9.155 13.055 9.17432 13.0937 9.21296C13.1323 9.2516 13.1516 9.29945 13.1516 9.35649C13.1516 9.41353 13.1323 9.46137 13.0937 9.50001C13.055 9.53865 13.0081 9.55797 12.9529 9.55797ZM13.1075 9.75946V11.2803H12.7928V9.75946H13.1075ZM14.2879 9.73462C14.4075 9.73462 14.5142 9.75946 14.6081 9.80914C14.7037 9.85882 14.7783 9.93243 14.8316 10.03C14.885 10.1275 14.9117 10.2452 14.9117 10.3832V11.2803H14.5998V10.4302C14.5998 10.294 14.5657 10.19 14.4977 10.1183C14.4296 10.0447 14.3366 10.0079 14.2189 10.0079C14.1011 10.0079 14.0073 10.0447 13.9374 10.1183C13.8693 10.19 13.8352 10.294 13.8352 10.4302V11.2803H13.5206V9.75946H13.8352V9.93335C13.8868 9.87079 13.9521 9.82202 14.0312 9.78706C14.1122 9.7521 14.1977 9.73462 14.2879 9.73462ZM17.0568 10.2949C17.1598 10.3133 17.2472 10.3676 17.319 10.4578C17.3907 10.5479 17.4266 10.6501 17.4266 10.7641C17.4266 10.8617 17.4008 10.95 17.3493 11.0291C17.2996 11.1064 17.227 11.168 17.1313 11.214C17.0356 11.2582 16.9243 11.2803 16.7973 11.2803H16.03V9.36201H16.7614C16.8921 9.36201 17.0043 9.38409 17.0982 9.42825C17.192 9.47241 17.2628 9.53221 17.3107 9.60766C17.3585 9.68126 17.3824 9.76406 17.3824 9.85606C17.3824 9.96647 17.353 10.0585 17.2941 10.1321C17.2352 10.2057 17.1561 10.26 17.0568 10.2949ZM16.3447 10.168H16.7338C16.8369 10.168 16.9169 10.145 16.974 10.099C17.0328 10.0511 17.0623 9.98303 17.0623 9.89471C17.0623 9.80822 17.0328 9.74106 16.974 9.69322C16.9169 9.64354 16.8369 9.6187 16.7338 9.6187H16.3447V10.168ZM16.7697 11.0236C16.8764 11.0236 16.9602 10.9978 17.0209 10.9463C17.0816 10.8948 17.112 10.823 17.112 10.731C17.112 10.6372 17.0798 10.5626 17.0154 10.5074C16.951 10.4522 16.8654 10.4246 16.7587 10.4246H16.3447V11.0236H16.7697ZM17.6637 10.513C17.6637 10.3602 17.6949 10.225 17.7575 10.1072C17.8219 9.98947 17.9084 9.89839 18.0169 9.83398C18.1273 9.76774 18.2488 9.73462 18.3813 9.73462C18.5009 9.73462 18.6048 9.75854 18.6932 9.80638C18.7833 9.85238 18.8551 9.91035 18.9085 9.98027V9.75946H19.2259V11.2803H18.9085V11.0539C18.8551 11.1257 18.7824 11.1855 18.6904 11.2334C18.5984 11.2812 18.4935 11.3051 18.3758 11.3051C18.2451 11.3051 18.1255 11.272 18.0169 11.2058C17.9084 11.1377 17.8219 11.0438 17.7575 10.9242C17.6949 10.8028 17.6637 10.6657 17.6637 10.513ZM18.9085 10.5185C18.9085 10.4136 18.8864 10.3225 18.8422 10.2452C18.7999 10.168 18.7438 10.1091 18.6738 10.0686C18.6039 10.0281 18.5285 10.0079 18.4475 10.0079C18.3666 10.0079 18.2911 10.0281 18.2212 10.0686C18.1513 10.1072 18.0942 10.1652 18.0501 10.2425C18.0077 10.3179 17.9866 10.4081 17.9866 10.513C17.9866 10.6179 18.0077 10.7099 18.0501 10.789C18.0942 10.8681 18.1513 10.9288 18.2212 10.9711C18.293 11.0116 18.3684 11.0319 18.4475 11.0319C18.5285 11.0319 18.6039 11.0116 18.6738 10.9711C18.7438 10.9307 18.7999 10.8718 18.8422 10.7945C18.8864 10.7154 18.9085 10.6234 18.9085 10.5185ZM19.9538 9.2378V11.2803H19.6391V9.2378H19.9538ZM20.262 10.513C20.262 10.3602 20.2933 10.225 20.3559 10.1072C20.4203 9.98947 20.5068 9.89839 20.6153 9.83398C20.7257 9.76774 20.8472 9.73462 20.9796 9.73462C21.0993 9.73462 21.2032 9.75854 21.2915 9.80638C21.3817 9.85238 21.4535 9.91035 21.5068 9.98027V9.75946H21.8242V11.2803H21.5068V11.0539C21.4535 11.1257 21.3808 11.1855 21.2888 11.2334C21.1968 11.2812 21.0919 11.3051 20.9741 11.3051C20.8435 11.3051 20.7239 11.272 20.6153 11.2058C20.5068 11.1377 20.4203 11.0438 20.3559 10.9242C20.2933 10.8028 20.262 10.6657 20.262 10.513ZM21.5068 10.5185C21.5068 10.4136 21.4847 10.3225 21.4406 10.2452C21.3983 10.168 21.3421 10.1091 21.2722 10.0686C21.2023 10.0281 21.1269 10.0079 21.0459 10.0079C20.9649 10.0079 20.8895 10.0281 20.8196 10.0686C20.7496 10.1072 20.6926 10.1652 20.6484 10.2425C20.6061 10.3179 20.585 10.4081 20.585 10.513C20.585 10.6179 20.6061 10.7099 20.6484 10.789C20.6926 10.8681 20.7496 10.9288 20.8196 10.9711C20.8913 11.0116 20.9668 11.0319 21.0459 11.0319C21.1269 11.0319 21.2023 11.0116 21.2722 10.9711C21.3421 10.9307 21.3983 10.8718 21.4406 10.7945C21.4847 10.7154 21.5068 10.6234 21.5068 10.5185ZM23.0048 9.73462C23.1244 9.73462 23.2312 9.75946 23.325 9.80914C23.4207 9.85882 23.4952 9.93243 23.5486 10.03C23.6019 10.1275 23.6286 10.2452 23.6286 10.3832V11.2803H23.3167V10.4302C23.3167 10.294 23.2827 10.19 23.2146 10.1183C23.1465 10.0447 23.0536 10.0079 22.9358 10.0079C22.8181 10.0079 22.7242 10.0447 22.6543 10.1183C22.5862 10.19 22.5522 10.294 22.5522 10.4302V11.2803H22.2375V9.75946H22.5522V9.93335C22.6037 9.87079 22.669 9.82202 22.7481 9.78706C22.8291 9.7521 22.9147 9.73462 23.0048 9.73462ZM23.9251 10.5185C23.9251 10.3621 23.9564 10.225 24.0189 10.1072C24.0833 9.98763 24.1716 9.89563 24.2839 9.83122C24.3961 9.76682 24.5249 9.73462 24.6703 9.73462C24.8543 9.73462 25.0061 9.77878 25.1257 9.86711C25.2472 9.95359 25.329 10.0778 25.3714 10.2397H25.0319C25.0043 10.1643 24.9601 10.1054 24.8994 10.0631C24.8387 10.0208 24.7623 9.99959 24.6703 9.99959C24.5415 9.99959 24.4385 10.0456 24.3612 10.1376C24.2857 10.2278 24.248 10.3547 24.248 10.5185C24.248 10.6823 24.2857 10.8101 24.3612 10.9021C24.4385 10.9941 24.5415 11.0401 24.6703 11.0401C24.8525 11.0401 24.973 10.9601 25.0319 10.8H25.3714C25.3272 10.9546 25.2444 11.0779 25.123 11.1699C25.0015 11.26 24.8506 11.3051 24.6703 11.3051C24.5249 11.3051 24.3961 11.2729 24.2839 11.2085C24.1716 11.1423 24.0833 11.0503 24.0189 10.9325C23.9564 10.8129 23.9251 10.6749 23.9251 10.5185ZM27.0788 10.4826C27.0788 10.5396 27.0751 10.5912 27.0677 10.6372H25.9057C25.9149 10.7586 25.96 10.8561 26.041 10.9297C26.122 11.0033 26.2213 11.0401 26.3391 11.0401C26.5084 11.0401 26.628 10.9693 26.6979 10.8276H27.0374C26.9914 10.9675 26.9077 11.0825 26.7862 11.1726C26.6666 11.261 26.5176 11.3051 26.3391 11.3051C26.1937 11.3051 26.0631 11.2729 25.9471 11.2085C25.8331 11.1423 25.7429 11.0503 25.6767 10.9325C25.6123 10.8129 25.5801 10.6749 25.5801 10.5185C25.5801 10.3621 25.6113 10.225 25.6739 10.1072C25.7383 9.98763 25.8275 9.89563 25.9416 9.83122C26.0576 9.76682 26.19 9.73462 26.3391 9.73462C26.4826 9.73462 26.6105 9.7659 26.7227 9.82846C26.835 9.89103 26.9224 9.97935 26.9849 10.0934C27.0475 10.2057 27.0788 10.3354 27.0788 10.4826ZM26.7503 10.3832C26.7485 10.2673 26.7071 10.1744 26.6261 10.1045C26.5452 10.0346 26.4449 9.99959 26.3253 9.99959C26.2167 9.99959 26.1238 10.0346 26.0465 10.1045C25.9692 10.1726 25.9232 10.2655 25.9085 10.3832H26.7503Z" fill="white"/>
<circle cx="18.912" cy="22.8005" r="4.77921" fill="white" fill-opacity="0.43"/>
<circle cx="13.0605" cy="22.8005" r="4.77921" fill="white" fill-opacity="0.43"/>
<path d="M60.4176 19.4578L60.5728 19.7338L60.1002 19.9098L60.5728 20.0857L60.4141 20.3686L60.0208 20.0581L60.0933 20.5584H59.7759L59.8414 20.0581L59.4481 20.3755L59.2825 20.0823L59.7517 19.9063L59.2825 19.7372L59.4412 19.4543L59.8449 19.7648L59.7759 19.2611H60.0967L60.0208 19.7648L60.4176 19.4578ZM62.1561 19.4578L62.3114 19.7338L61.8387 19.9098L62.3114 20.0857L62.1527 20.3686L61.7594 20.0581L61.8318 20.5584H61.5144L61.5799 20.0581L61.1866 20.3755L61.021 20.0823L61.4902 19.9063L61.021 19.7372L61.1797 19.4543L61.5834 19.7648L61.5144 19.2611H61.8353L61.7594 19.7648L62.1561 19.4578ZM63.8947 19.4578L64.0499 19.7338L63.5772 19.9098L64.0499 20.0857L63.8912 20.3686L63.4979 20.0581L63.5703 20.5584H63.2529L63.3185 20.0581L62.9252 20.3755L62.7596 20.0823L63.2288 19.9063L62.7596 19.7372L62.9183 19.4543L63.3219 19.7648L63.2529 19.2611H63.5738L63.4979 19.7648L63.8947 19.4578ZM65.6332 19.4578L65.7884 19.7338L65.3158 19.9098L65.7884 20.0857L65.6297 20.3686L65.2364 20.0581L65.3089 20.5584H64.9915L65.057 20.0581L64.6637 20.3755L64.4981 20.0823L64.9673 19.9063L64.4981 19.7372L64.6568 19.4543L65.0605 19.7648L64.9915 19.2611H65.3123L65.2364 19.7648L65.6332 19.4578ZM68.2679 19.4578L68.4232 19.7338L67.9505 19.9098L68.4232 20.0857L68.2645 20.3686L67.8712 20.0581L67.9436 20.5584H67.6262L67.6918 20.0581L67.2985 20.3755L67.1329 20.0823L67.6021 19.9063L67.1329 19.7372L67.2916 19.4543L67.6952 19.7648L67.6262 19.2611H67.9471L67.8712 19.7648L68.2679 19.4578ZM70.0065 19.4578L70.1617 19.7338L69.6891 19.9098L70.1617 20.0857L70.003 20.3686L69.6097 20.0581L69.6822 20.5584H69.3648L69.4303 20.0581L69.037 20.3755L68.8714 20.0823L69.3406 19.9063L68.8714 19.7372L69.0301 19.4543L69.4338 19.7648L69.3648 19.2611H69.6856L69.6097 19.7648L70.0065 19.4578ZM71.745 19.4578L71.9003 19.7338L71.4276 19.9098L71.9003 20.0857L71.7416 20.3686L71.3483 20.0581L71.4207 20.5584H71.1033L71.1688 20.0581L70.7755 20.3755L70.6099 20.0823L71.0791 19.9063L70.6099 19.7372L70.7686 19.4543L71.1723 19.7648L71.1033 19.2611H71.4242L71.3483 19.7648L71.745 19.4578ZM73.4836 19.4578L73.6388 19.7338L73.1661 19.9098L73.6388 20.0857L73.4801 20.3686L73.0868 20.0581L73.1592 20.5584H72.8418L72.9074 20.0581L72.5141 20.3755L72.3485 20.0823L72.8177 19.9063L72.3485 19.7372L72.5072 19.4543L72.9108 19.7648L72.8418 19.2611H73.1627L73.0868 19.7648L73.4836 19.4578ZM76.1183 19.4578L76.2736 19.7338L75.8009 19.9098L76.2736 20.0857L76.1149 20.3686L75.7215 20.0581L75.794 20.5584H75.4766L75.5421 20.0581L75.1488 20.3755L74.9832 20.0823L75.4524 19.9063L74.9832 19.7372L75.1419 19.4543L75.5456 19.7648L75.4766 19.2611H75.7975L75.7215 19.7648L76.1183 19.4578ZM77.8568 19.4578L78.0121 19.7338L77.5394 19.9098L78.0121 20.0857L77.8534 20.3686L77.4601 20.0581L77.5325 20.5584H77.2151L77.2807 20.0581L76.8874 20.3755L76.7218 20.0823L77.191 19.9063L76.7218 19.7372L76.8805 19.4543L77.2841 19.7648L77.2151 19.2611H77.536L77.4601 19.7648L77.8568 19.4578ZM79.5954 19.4578L79.7506 19.7338L79.278 19.9098L79.7506 20.0857L79.5919 20.3686L79.1986 20.0581L79.2711 20.5584H78.9537L79.0192 20.0581L78.6259 20.3755L78.4603 20.0823L78.9295 19.9063L78.4603 19.7372L78.619 19.4543L79.0227 19.7648L78.9537 19.2611H79.2745L79.1986 19.7648L79.5954 19.4578ZM81.3339 19.4578L81.4892 19.7338L81.0165 19.9098L81.4892 20.0857L81.3305 20.3686L80.9372 20.0581L81.0096 20.5584H80.6922L80.7577 20.0581L80.3644 20.3755L80.1988 20.0823L80.668 19.9063L80.1988 19.7372L80.3575 19.4543L80.7612 19.7648L80.6922 19.2611H81.0131L80.9372 19.7648L81.3339 19.4578ZM74.3955 24.6441V24.2853H75.1131V26.8004H74.7164V24.6441H74.3955ZM75.8708 26.2656C76.0916 26.0747 76.2653 25.9183 76.3918 25.7964C76.5206 25.6722 76.6275 25.5434 76.7126 25.41C76.7978 25.2766 76.8403 25.1432 76.8403 25.0098C76.8403 24.8718 76.807 24.7637 76.7402 24.6855C76.6758 24.6073 76.5735 24.5682 76.4332 24.5682C76.2975 24.5682 76.1917 24.6119 76.1158 24.6993C76.0422 24.7844 76.0031 24.8994 75.9985 25.0443H75.619C75.6259 24.7821 75.7041 24.582 75.8536 24.444C76.0054 24.3037 76.1974 24.2335 76.4297 24.2335C76.6804 24.2335 76.876 24.3025 77.0163 24.4405C77.1589 24.5785 77.2302 24.7625 77.2302 24.9926C77.2302 25.1582 77.1876 25.318 77.1025 25.4721C77.0197 25.6239 76.9197 25.7608 76.8024 25.8827C76.6873 26.0023 76.5401 26.1414 76.3607 26.3001L76.2055 26.4382H77.2992V26.7659H75.6224V26.4796L75.8708 26.2656ZM77.6378 24.9063C77.6516 24.6924 77.7332 24.5256 77.8828 24.406C78.0346 24.2864 78.2278 24.2266 78.4624 24.2266C78.6234 24.2266 78.7625 24.2554 78.8798 24.3129C78.9971 24.3704 79.0857 24.4486 79.1455 24.5475C79.2053 24.6464 79.2352 24.7579 79.2352 24.8821C79.2352 25.0248 79.1972 25.1467 79.1213 25.2479C79.0454 25.3491 78.9546 25.4169 78.8488 25.4514V25.4652C78.9845 25.5066 79.0903 25.5825 79.1662 25.6929C79.2421 25.801 79.28 25.9402 79.28 26.1104C79.28 26.2461 79.249 26.3669 79.1869 26.4727C79.1248 26.5785 79.0328 26.6624 78.9109 26.7245C78.789 26.7843 78.6429 26.8142 78.4727 26.8142C78.2243 26.8142 78.0196 26.751 77.8586 26.6245C77.6999 26.4957 77.6148 26.3116 77.6033 26.0724H77.9828C77.992 26.1943 78.0392 26.2944 78.1243 26.3726C78.2094 26.4485 78.3244 26.4865 78.4693 26.4865C78.6096 26.4865 78.7177 26.4485 78.7936 26.3726C78.8695 26.2944 78.9074 26.1943 78.9074 26.0724C78.9074 25.9114 78.8557 25.7976 78.7522 25.7309C78.651 25.6619 78.4946 25.6274 78.283 25.6274H78.1933V25.3031H78.2864C78.4727 25.3008 78.6142 25.2697 78.7108 25.2099C78.8097 25.1501 78.8591 25.0558 78.8591 24.927C78.8591 24.8166 78.8235 24.7292 78.7522 24.6648C78.6809 24.5981 78.5797 24.5647 78.4486 24.5647C78.3198 24.5647 78.2197 24.5981 78.1484 24.6648C78.0771 24.7292 78.0346 24.8097 78.0208 24.9063H77.6378ZM79.6449 26.276V25.9793L80.8041 24.3163H81.2803V25.9344H81.6011V26.276H81.2803V26.8004H80.8938V26.276H79.6449ZM80.9111 24.7165L80.0969 25.9344H80.9111V24.7165Z" fill="white"/>
<path d="M9.90902 34.6422L9.27868 36.3207H8.95989L8.32714 34.6422H8.62178L9.11928 36.0381L9.61921 34.6422H9.90902ZM11.1512 35.9777H10.4484L10.3276 36.3207H10.0402L10.6416 34.6398H10.9604L11.5617 36.3207H11.2719L11.1512 35.9777ZM11.0739 35.7531L10.801 34.9731L10.5257 35.7531H11.0739ZM12.0985 36.0985H12.6661V36.3207H11.8232V34.6422H12.0985V36.0985ZM13.1716 34.6422V36.3207H12.8963V34.6422H13.1716ZM14.0813 34.6422C14.2601 34.6422 14.4162 34.6768 14.5499 34.746C14.6851 34.8137 14.789 34.9119 14.8614 35.0407C14.9355 35.1679 14.9725 35.3168 14.9725 35.4875C14.9725 35.6581 14.9355 35.8063 14.8614 35.9319C14.789 36.0574 14.6851 36.154 14.5499 36.2217C14.4162 36.2877 14.2601 36.3207 14.0813 36.3207H13.5331V34.6422H14.0813ZM14.0813 36.0961C14.2778 36.0961 14.4283 36.0429 14.533 35.9367C14.6376 35.8304 14.6899 35.6807 14.6899 35.4875C14.6899 35.2927 14.6376 35.1405 14.533 35.031C14.4283 34.9215 14.2778 34.8668 14.0813 34.8668H13.8084V36.0961H14.0813ZM16.9571 34.6422V34.8668H16.5103V36.3207H16.235V34.8668H15.7858V34.6422H16.9571ZM18.5763 34.6422V36.3207H18.301V35.5865H17.5112V36.3207H17.2359V34.6422H17.5112V35.3619H18.301V34.6422H18.5763ZM19.8106 36.3207L19.4242 35.6493H19.2141V36.3207H18.9387V34.6422H19.5184C19.6472 34.6422 19.7558 34.6647 19.8444 34.7098C19.9346 34.7549 20.0014 34.8153 20.0449 34.8909C20.0899 34.9666 20.1125 35.0512 20.1125 35.1445C20.1125 35.254 20.0803 35.3538 20.0159 35.444C19.9531 35.5326 19.8557 35.5929 19.7236 35.6251L20.139 36.3207H19.8106ZM19.2141 35.4295H19.5184C19.6214 35.4295 19.6987 35.4038 19.7502 35.3522C19.8033 35.3007 19.8299 35.2315 19.8299 35.1445C19.8299 35.0576 19.8041 34.99 19.7526 34.9417C19.7011 34.8918 19.623 34.8668 19.5184 34.8668H19.2141V35.4295ZM20.7376 34.6422V35.7121C20.7376 35.8393 20.7706 35.9351 20.8366 35.9995C20.9042 36.0639 20.9976 36.0961 21.1168 36.0961C21.2375 36.0961 21.3309 36.0639 21.3969 35.9995C21.4645 35.9351 21.4983 35.8393 21.4983 35.7121V34.6422H21.7737V35.7072C21.7737 35.8441 21.7439 35.96 21.6843 36.055C21.6247 36.15 21.545 36.2209 21.4452 36.2675C21.3454 36.3142 21.2351 36.3376 21.1143 36.3376C20.9936 36.3376 20.8833 36.3142 20.7835 36.2675C20.6853 36.2209 20.6072 36.15 20.5492 36.055C20.4912 35.96 20.4623 35.8441 20.4623 35.7072V34.6422H20.7376Z" fill="white" fill-opacity="0.6"/>
<path d="M8.44686 39.601C8.44686 39.2827 8.50022 39.0343 8.60694 38.8558C8.7155 38.6755 8.90135 38.5853 9.16448 38.5853C9.42761 38.5853 9.61254 38.6755 9.71926 38.8558C9.82782 39.0343 9.8821 39.2827 9.8821 39.601C9.8821 39.923 9.82782 40.1751 9.71926 40.3573C9.61254 40.5376 9.42761 40.6278 9.16448 40.6278C8.90135 40.6278 8.7155 40.5376 8.60694 40.3573C8.50022 40.1751 8.44686 39.923 8.44686 39.601ZM9.57297 39.601C9.57297 39.452 9.56285 39.3259 9.54261 39.2229C9.52421 39.1198 9.48557 39.0361 9.42669 38.9717C9.36781 38.9055 9.2804 38.8724 9.16448 38.8724C9.04856 38.8724 8.96115 38.9055 8.90227 38.9717C8.84339 39.0361 8.80383 39.1198 8.78359 39.2229C8.76519 39.3259 8.75599 39.452 8.75599 39.601C8.75599 39.7556 8.76519 39.8853 8.78359 39.9902C8.80199 40.0951 8.84063 40.1797 8.89951 40.2441C8.96023 40.3085 9.04856 40.3407 9.16448 40.3407C9.2804 40.3407 9.36781 40.3085 9.42669 40.2441C9.48741 40.1797 9.52697 40.0951 9.54537 39.9902C9.56377 39.8853 9.57297 39.7556 9.57297 39.601ZM10.5545 39.5817C10.3632 39.486 10.2675 39.3351 10.2675 39.129C10.2675 39.0297 10.2923 38.9386 10.342 38.8558C10.3917 38.773 10.4662 38.7077 10.5656 38.6598C10.6649 38.6102 10.7864 38.5853 10.9299 38.5853C11.0716 38.5853 11.1921 38.6102 11.2915 38.6598C11.3927 38.7077 11.4681 38.773 11.5178 38.8558C11.5675 38.9386 11.5923 39.0297 11.5923 39.129C11.5923 39.2321 11.5656 39.3232 11.5123 39.4023C11.4608 39.4796 11.3918 39.5394 11.3053 39.5817C11.4102 39.6203 11.493 39.6838 11.5537 39.7722C11.6144 39.8586 11.6448 39.9608 11.6448 40.0785C11.6448 40.1981 11.6144 40.3039 11.5537 40.3959C11.493 40.4879 11.4083 40.5588 11.2998 40.6085C11.1912 40.6581 11.0679 40.683 10.9299 40.683C10.7919 40.683 10.6686 40.6581 10.5601 40.6085C10.4533 40.5588 10.3696 40.4879 10.3089 40.3959C10.2482 40.3039 10.2178 40.1981 10.2178 40.0785C10.2178 39.9589 10.2482 39.8559 10.3089 39.7694C10.3696 39.6829 10.4515 39.6203 10.5545 39.5817ZM11.2915 39.1677C11.2915 39.0646 11.2593 38.9855 11.1949 38.9303C11.1305 38.8751 11.0421 38.8475 10.9299 38.8475C10.8195 38.8475 10.7321 38.8751 10.6677 38.9303C10.6033 38.9855 10.5711 39.0656 10.5711 39.1705C10.5711 39.2625 10.6042 39.3379 10.6705 39.3968C10.7385 39.4538 10.825 39.4823 10.9299 39.4823C11.0348 39.4823 11.1213 39.4529 11.1894 39.394C11.2574 39.3351 11.2915 39.2597 11.2915 39.1677ZM10.9299 39.7197C10.8085 39.7197 10.7091 39.7501 10.6318 39.8108C10.5564 39.8697 10.5187 39.9552 10.5187 40.0675C10.5187 40.1724 10.5555 40.2579 10.6291 40.3242C10.7027 40.3886 10.8029 40.4208 10.9299 40.4208C11.055 40.4208 11.1535 40.3877 11.2252 40.3214C11.2988 40.2552 11.3356 40.1705 11.3356 40.0675C11.3356 39.9571 11.2979 39.8715 11.2225 39.8108C11.1489 39.7501 11.0513 39.7197 10.9299 39.7197ZM13.0378 38.0278L12.287 41.1163H11.9779L12.7259 38.0278H13.0378ZM13.5668 40.2055C13.7435 40.0528 13.8824 39.9276 13.9836 39.8301C14.0866 39.7307 14.1722 39.6277 14.2403 39.521C14.3084 39.4143 14.3424 39.3075 14.3424 39.2008C14.3424 39.0904 14.3157 39.0039 14.2624 38.9414C14.2108 38.8788 14.1289 38.8475 14.0167 38.8475C13.9081 38.8475 13.8235 38.8825 13.7628 38.9524C13.7039 39.0205 13.6726 39.1125 13.6689 39.2284H13.3653C13.3708 39.0186 13.4334 38.8586 13.553 38.7482C13.6745 38.6359 13.8281 38.5798 14.0139 38.5798C14.2145 38.5798 14.3709 38.635 14.4832 38.7454C14.5972 38.8558 14.6543 39.003 14.6543 39.187C14.6543 39.3195 14.6202 39.4474 14.5522 39.5707C14.4859 39.6921 14.4059 39.8016 14.312 39.8991C14.22 39.9948 14.1023 40.1061 13.9587 40.2331L13.8345 40.3435H14.7095V40.6057H13.3681V40.3766L13.5668 40.2055ZM14.9445 38.9082V38.6212H15.5186V40.6333H15.2012V38.9082H14.9445Z" fill="white"/>
<path d="M38.4722 35.4778C38.4722 35.3136 38.51 35.1663 38.5857 35.0359C38.663 34.9054 38.7668 34.804 38.8972 34.7316C39.0292 34.6575 39.1733 34.6205 39.3295 34.6205C39.5082 34.6205 39.6668 34.6647 39.8053 34.7533C39.9454 34.8402 40.0468 34.9642 40.1096 35.1252H39.7787C39.7353 35.0367 39.6749 34.9706 39.5976 34.9272C39.5203 34.8837 39.431 34.862 39.3295 34.862C39.2184 34.862 39.1194 34.8869 39.0325 34.9368C38.9455 34.9867 38.8771 35.0584 38.8272 35.1518C38.7789 35.2452 38.7547 35.3538 38.7547 35.4778C38.7547 35.6018 38.7789 35.7105 38.8272 35.8039C38.8771 35.8972 38.9455 35.9697 39.0325 36.0212C39.1194 36.0711 39.2184 36.0961 39.3295 36.0961C39.431 36.0961 39.5203 36.0743 39.5976 36.0309C39.6749 35.9874 39.7353 35.9214 39.7787 35.8328H40.1096C40.0468 35.9938 39.9454 36.1178 39.8053 36.2048C39.6668 36.2917 39.5082 36.3352 39.3295 36.3352C39.1717 36.3352 39.0276 36.2989 38.8972 36.2265C38.7668 36.1524 38.663 36.0502 38.5857 35.9198C38.51 35.7894 38.4722 35.642 38.4722 35.4778ZM41.4438 35.9777H40.741L40.6202 36.3207H40.3328L40.9342 34.6398H41.253L41.8543 36.3207H41.5645L41.4438 35.9777ZM41.3665 35.7531L41.0936 34.9731L40.8183 35.7531H41.3665ZM42.9877 36.3207L42.6012 35.6493H42.3911V36.3207H42.1158V34.6422H42.6954C42.8242 34.6422 42.9329 34.6647 43.0215 34.7098C43.1116 34.7549 43.1784 34.8153 43.2219 34.8909C43.267 34.9666 43.2895 35.0512 43.2895 35.1445C43.2895 35.254 43.2573 35.3538 43.1929 35.444C43.1301 35.5326 43.0327 35.5929 42.9007 35.6251L43.3161 36.3207H42.9877ZM42.3911 35.4295H42.6954C42.7985 35.4295 42.8758 35.4038 42.9273 35.3522C42.9804 35.3007 43.007 35.2315 43.007 35.1445C43.007 35.0576 42.9812 34.99 42.9297 34.9417C42.8782 34.8918 42.8001 34.8668 42.6954 34.8668H42.3911V35.4295ZM44.19 34.6422C44.3687 34.6422 44.5249 34.6768 44.6585 34.746C44.7937 34.8137 44.8976 34.9119 44.97 35.0407C45.0441 35.1679 45.0811 35.3168 45.0811 35.4875C45.0811 35.6581 45.0441 35.8063 44.97 35.9319C44.8976 36.0574 44.7937 36.154 44.6585 36.2217C44.5249 36.2877 44.3687 36.3207 44.19 36.3207H43.6417V34.6422H44.19ZM44.19 36.0961C44.3864 36.0961 44.5369 36.0429 44.6416 35.9367C44.7462 35.8304 44.7986 35.6807 44.7986 35.4875C44.7986 35.2927 44.7462 35.1405 44.6416 35.031C44.5369 34.9215 44.3864 34.8668 44.19 34.8668H43.9171V36.0961H44.19ZM47.3217 34.6422V36.3207H47.0464V35.5865H46.2567V36.3207H45.9814V34.6422H46.2567V35.3619H47.0464V34.6422H47.3217ZM48.4498 36.3376C48.2936 36.3376 48.1495 36.3014 48.0175 36.2289C47.887 36.1548 47.7832 36.0526 47.7059 35.9222C47.6302 35.7902 47.5924 35.642 47.5924 35.4778C47.5924 35.3136 47.6302 35.1663 47.7059 35.0359C47.7832 34.9054 47.887 34.804 48.0175 34.7316C48.1495 34.6575 48.2936 34.6205 48.4498 34.6205C48.6075 34.6205 48.7516 34.6575 48.8821 34.7316C49.0141 34.804 49.1179 34.9054 49.1936 35.0359C49.2693 35.1663 49.3071 35.3136 49.3071 35.4778C49.3071 35.642 49.2693 35.7902 49.1936 35.9222C49.1179 36.0526 49.0141 36.1548 48.8821 36.2289C48.7516 36.3014 48.6075 36.3376 48.4498 36.3376ZM48.4498 36.0985C48.5609 36.0985 48.6599 36.0735 48.7468 36.0236C48.8338 35.9721 48.9014 35.8996 48.9497 35.8063C48.9996 35.7113 49.0246 35.6018 49.0246 35.4778C49.0246 35.3538 48.9996 35.2452 48.9497 35.1518C48.9014 35.0584 48.8338 34.9867 48.7468 34.9368C48.6599 34.8869 48.5609 34.862 48.4498 34.862C48.3387 34.862 48.2397 34.8869 48.1527 34.9368C48.0658 34.9867 47.9973 35.0584 47.9474 35.1518C47.8991 35.2452 47.875 35.3538 47.875 35.4778C47.875 35.6018 47.8991 35.7113 47.9474 35.8063C47.9973 35.8996 48.0658 35.9721 48.1527 36.0236C48.2397 36.0735 48.3387 36.0985 48.4498 36.0985ZM49.8534 36.0985H50.4209V36.3207H49.578V34.6422H49.8534V36.0985ZM51.1994 34.6422C51.3781 34.6422 51.5343 34.6768 51.6679 34.746C51.8031 34.8137 51.907 34.9119 51.9794 35.0407C52.0535 35.1679 52.0905 35.3168 52.0905 35.4875C52.0905 35.6581 52.0535 35.8063 51.9794 35.9319C51.907 36.0574 51.8031 36.154 51.6679 36.2217C51.5343 36.2877 51.3781 36.3207 51.1994 36.3207H50.6511V34.6422H51.1994ZM51.1994 36.0961C51.3958 36.0961 51.5463 36.0429 51.651 35.9367C51.7556 35.8304 51.808 35.6807 51.808 35.4875C51.808 35.2927 51.7556 35.1405 51.651 35.031C51.5463 34.9215 51.3958 34.8668 51.1994 34.8668H50.9265V36.0961H51.1994ZM52.6387 34.8644V35.3571H53.2183V35.5817H52.6387V36.0961H53.2908V36.3207H52.3634V34.6398H53.2908V34.8644H52.6387ZM54.5018 36.3207L54.1153 35.6493H53.9052V36.3207H53.6299V34.6422H54.2095C54.3383 34.6422 54.447 34.6647 54.5356 34.7098C54.6257 34.7549 54.6925 34.8153 54.736 34.8909C54.7811 34.9666 54.8036 35.0512 54.8036 35.1445C54.8036 35.254 54.7714 35.3538 54.707 35.444C54.6442 35.5326 54.5468 35.5929 54.4148 35.6251L54.8302 36.3207H54.5018ZM53.9052 35.4295H54.2095C54.3126 35.4295 54.3899 35.4038 54.4414 35.3522C54.4945 35.3007 54.5211 35.2315 54.5211 35.1445C54.5211 35.0576 54.4953 34.99 54.4438 34.9417C54.3923 34.8918 54.3142 34.8668 54.2095 34.8668H53.9052V35.4295Z" fill="white" fill-opacity="0.6"/>
<path d="M39.7187 38.715V38.9717H38.9045V39.5375H39.5393V39.7942H38.9045V40.6333H38.5898V38.715H39.7187ZM40.3249 39.3333C40.371 39.256 40.4317 39.1962 40.5071 39.1539C40.5844 39.1097 40.6755 39.0876 40.7804 39.0876V39.4133H40.7003C40.577 39.4133 40.4832 39.4446 40.4188 39.5072C40.3562 39.5697 40.3249 39.6783 40.3249 39.8329V40.6333H40.0103V39.1125H40.3249V39.3333ZM40.9647 39.866C40.9647 39.7133 40.996 39.578 41.0586 39.4603C41.123 39.3425 41.2094 39.2514 41.318 39.187C41.4284 39.1208 41.5498 39.0876 41.6823 39.0876C41.8019 39.0876 41.9059 39.1116 41.9942 39.1594C42.0844 39.2054 42.1561 39.2634 42.2095 39.3333V39.1125H42.5269V40.6333H42.2095V40.407C42.1561 40.4787 42.0835 40.5385 41.9915 40.5864C41.8995 40.6342 41.7946 40.6581 41.6768 40.6581C41.5462 40.6581 41.4266 40.625 41.318 40.5588C41.2094 40.4907 41.123 40.3969 41.0586 40.2772C40.996 40.1558 40.9647 40.0187 40.9647 39.866ZM42.2095 39.8715C42.2095 39.7666 42.1874 39.6755 42.1433 39.5983C42.1009 39.521 42.0448 39.4621 41.9749 39.4216C41.905 39.3811 41.8295 39.3609 41.7486 39.3609C41.6676 39.3609 41.5922 39.3811 41.5222 39.4216C41.4523 39.4603 41.3953 39.5182 41.3511 39.5955C41.3088 39.6709 41.2876 39.7611 41.2876 39.866C41.2876 39.9709 41.3088 40.0629 41.3511 40.142C41.3953 40.2211 41.4523 40.2818 41.5222 40.3242C41.594 40.3647 41.6695 40.3849 41.7486 40.3849C41.8295 40.3849 41.905 40.3647 41.9749 40.3242C42.0448 40.2837 42.1009 40.2248 42.1433 40.1475C42.1874 40.0684 42.2095 39.9764 42.2095 39.8715ZM43.7075 39.0876C43.8271 39.0876 43.9338 39.1125 44.0277 39.1622C44.1234 39.2119 44.1979 39.2855 44.2512 39.383C44.3046 39.4805 44.3313 39.5983 44.3313 39.7363V40.6333H44.0194V39.7832C44.0194 39.647 43.9854 39.5431 43.9173 39.4713C43.8492 39.3977 43.7563 39.3609 43.6385 39.3609C43.5207 39.3609 43.4269 39.3977 43.357 39.4713C43.2889 39.5431 43.2549 39.647 43.2549 39.7832V40.6333H42.9402V39.1125H43.2549V39.2864C43.3064 39.2238 43.3717 39.1751 43.4508 39.1401C43.5318 39.1051 43.6173 39.0876 43.7075 39.0876ZM45.3343 39.8743L46.0354 40.6333H45.6104L45.0473 39.9792V40.6333H44.7326V38.5908H45.0473V39.7777L45.5993 39.1125H46.0354L45.3343 39.8743ZM46.5756 38.5908V40.6333H46.2609V38.5908H46.5756ZM47.1488 38.911C47.0917 38.911 47.0439 38.8917 47.0053 38.853C46.9666 38.8144 46.9473 38.7666 46.9473 38.7095C46.9473 38.6525 46.9666 38.6046 47.0053 38.566C47.0439 38.5273 47.0917 38.508 47.1488 38.508C47.204 38.508 47.2509 38.5273 47.2896 38.566C47.3282 38.6046 47.3475 38.6525 47.3475 38.7095C47.3475 38.7666 47.3282 38.8144 47.2896 38.853C47.2509 38.8917 47.204 38.911 47.1488 38.911ZM47.3034 39.1125V40.6333H46.9887V39.1125H47.3034ZM48.4838 39.0876C48.6034 39.0876 48.7101 39.1125 48.8039 39.1622C48.8996 39.2119 48.9741 39.2855 49.0275 39.383C49.0809 39.4805 49.1075 39.5983 49.1075 39.7363V40.6333H48.7957V39.7832C48.7957 39.647 48.7616 39.5431 48.6935 39.4713C48.6255 39.3977 48.5325 39.3609 48.4148 39.3609C48.297 39.3609 48.2032 39.3977 48.1332 39.4713C48.0652 39.5431 48.0311 39.647 48.0311 39.7832V40.6333H47.7165V39.1125H48.0311V39.2864C48.0826 39.2238 48.148 39.1751 48.2271 39.1401C48.308 39.1051 48.3936 39.0876 48.4838 39.0876ZM51.272 38.715V40.0978C51.272 40.269 51.2195 40.4042 51.1146 40.5036C51.0116 40.6029 50.8754 40.6526 50.7061 40.6526C50.5369 40.6526 50.3998 40.6029 50.2949 40.5036C50.1918 40.4042 50.1403 40.269 50.1403 40.0978H50.4577C50.4596 40.1825 50.4807 40.2496 50.5212 40.2993C50.5635 40.349 50.6252 40.3739 50.7061 40.3739C50.7871 40.3739 50.8487 40.349 50.8911 40.2993C50.9334 40.2478 50.9545 40.1806 50.9545 40.0978V38.715H51.272ZM52.0985 39.3333C52.1445 39.256 52.2052 39.1962 52.2806 39.1539C52.3579 39.1097 52.449 39.0876 52.5539 39.0876V39.4133H52.4738C52.3506 39.4133 52.2567 39.4446 52.1923 39.5072C52.1298 39.5697 52.0985 39.6783 52.0985 39.8329V40.6333H51.7838V39.1125H52.0985V39.3333ZM52.9701 40.6526C52.913 40.6526 52.8652 40.6333 52.8266 40.5947C52.7879 40.556 52.7686 40.5082 52.7686 40.4511C52.7686 40.3941 52.7879 40.3463 52.8266 40.3076C52.8652 40.269 52.913 40.2496 52.9701 40.2496C53.0253 40.2496 53.0722 40.269 53.1108 40.3076C53.1495 40.3463 53.1688 40.3941 53.1688 40.4511C53.1688 40.5082 53.1495 40.556 53.1108 40.5947C53.0722 40.6333 53.0253 40.6526 52.9701 40.6526Z" fill="white"/>
</svg>
