<svg width="48" height="28" viewBox="0 0 48 28" fill="none" xmlns="http://www.w3.org/2000/svg">
<rect y="0.489746" width="48" height="27.0206" rx="2.45342" fill="#284F60"/>
<path d="M5.60396 5.88281V6.90588H5.43615V6.20519L5.12407 6.90588H5.00778L4.69423 6.20519V6.90588H4.52642V5.88281H4.70748L5.06666 6.68508L5.42437 5.88281H5.60396ZM5.76859 6.49665C5.76859 6.4152 5.78527 6.34307 5.81864 6.28026C5.85299 6.21745 5.89911 6.16888 5.95701 6.13453C6.01589 6.0992 6.08066 6.08154 6.15132 6.08154C6.21511 6.08154 6.27056 6.09429 6.31766 6.11981C6.36575 6.14434 6.40402 6.17526 6.43248 6.21255V6.09478H6.60177V6.90588H6.43248V6.78518C6.40402 6.82345 6.36526 6.85534 6.31619 6.88086C6.26712 6.90637 6.21119 6.91913 6.14838 6.91913C6.0787 6.91913 6.01491 6.90147 5.95701 6.86614C5.89911 6.82983 5.85299 6.77978 5.81864 6.71599C5.78527 6.65122 5.76859 6.57811 5.76859 6.49665ZM6.43248 6.4996C6.43248 6.44366 6.42071 6.39508 6.39715 6.35386C6.37458 6.31265 6.34465 6.28124 6.30736 6.25965C6.27007 6.23806 6.22983 6.22727 6.18665 6.22727C6.14347 6.22727 6.10323 6.23806 6.06594 6.25965C6.02865 6.28026 5.99823 6.31118 5.97468 6.35239C5.9521 6.39263 5.94082 6.44072 5.94082 6.49665C5.94082 6.55259 5.9521 6.60166 5.97468 6.64386C5.99823 6.68606 6.02865 6.71844 6.06594 6.74101C6.10422 6.7626 6.14445 6.7734 6.18665 6.7734C6.22983 6.7734 6.27007 6.7626 6.30736 6.74101C6.34465 6.71942 6.37458 6.68802 6.39715 6.6468C6.42071 6.6046 6.43248 6.55554 6.43248 6.4996ZM6.90756 5.98732C6.87714 5.98732 6.85163 5.97702 6.83102 5.95641C6.81041 5.9358 6.80011 5.91029 6.80011 5.87986C6.80011 5.84944 6.81041 5.82393 6.83102 5.80332C6.85163 5.78271 6.87714 5.7724 6.90756 5.7724C6.93701 5.7724 6.96203 5.78271 6.98264 5.80332C7.00325 5.82393 7.01355 5.84944 7.01355 5.87986C7.01355 5.91029 7.00325 5.9358 6.98264 5.95641C6.96203 5.97702 6.93701 5.98732 6.90756 5.98732ZM6.99 6.09478V6.90588H6.82219V6.09478H6.99ZM7.61955 6.08154C7.68334 6.08154 7.74026 6.09478 7.79031 6.12128C7.84134 6.14778 7.88109 6.18703 7.90955 6.23904C7.93801 6.29106 7.95224 6.35386 7.95224 6.42747V6.90588H7.7859V6.45249C7.7859 6.37987 7.76774 6.32442 7.73143 6.28615C7.69512 6.2469 7.64556 6.22727 7.58275 6.22727C7.51995 6.22727 7.4699 6.2469 7.4326 6.28615C7.39629 6.32442 7.37814 6.37987 7.37814 6.45249V6.90588H7.21032V6.09478H7.37814V6.18752C7.40562 6.15416 7.44045 6.12815 7.48265 6.1095C7.52583 6.09086 7.57147 6.08154 7.61955 6.08154ZM9.09629 6.38036C9.15124 6.39018 9.19786 6.41913 9.23613 6.46721C9.2744 6.5153 9.29354 6.56977 9.29354 6.63061C9.29354 6.68262 9.2798 6.72973 9.25232 6.77193C9.22583 6.81314 9.18706 6.84602 9.13603 6.87055C9.085 6.89411 9.02563 6.90588 8.95791 6.90588H8.54868V5.88281H8.93878C9.00845 5.88281 9.06832 5.89459 9.11837 5.91814C9.16842 5.94169 9.2062 5.97359 9.23171 6.01382C9.25723 6.05308 9.26999 6.09724 9.26999 6.14631C9.26999 6.20519 9.25429 6.25426 9.22288 6.29351C9.19148 6.33277 9.14928 6.36172 9.09629 6.38036ZM8.7165 6.31265H8.92406C8.97901 6.31265 9.0217 6.30038 9.05212 6.27585C9.08353 6.25033 9.09923 6.21402 9.09923 6.16691C9.09923 6.12079 9.08353 6.08497 9.05212 6.05945C9.0217 6.03296 8.97901 6.01971 8.92406 6.01971H8.7165V6.31265ZM8.94319 6.76898C9.00011 6.76898 9.04476 6.75524 9.07715 6.72777C9.10953 6.70029 9.12573 6.66201 9.12573 6.61295C9.12573 6.5629 9.10855 6.52315 9.0742 6.49371C9.03986 6.46427 8.99422 6.44955 8.9373 6.44955H8.7165V6.76898H8.94319ZM9.41996 6.49665C9.41996 6.4152 9.43665 6.34307 9.47001 6.28026C9.50436 6.21745 9.55049 6.16888 9.60839 6.13453C9.66727 6.0992 9.73204 6.08154 9.8027 6.08154C9.86649 6.08154 9.92193 6.09429 9.96904 6.11981C10.0171 6.14434 10.0554 6.17526 10.0839 6.21255V6.09478H10.2531V6.90588H10.0839V6.78518C10.0554 6.82345 10.0166 6.85534 9.96757 6.88086C9.9185 6.90637 9.86256 6.91913 9.79975 6.91913C9.73008 6.91913 9.66629 6.90147 9.60839 6.86614C9.55049 6.82983 9.50436 6.77978 9.47001 6.71599C9.43665 6.65122 9.41996 6.57811 9.41996 6.49665ZM10.0839 6.4996C10.0839 6.44366 10.0721 6.39508 10.0485 6.35386C10.026 6.31265 9.99603 6.28124 9.95873 6.25965C9.92144 6.23806 9.88121 6.22727 9.83803 6.22727C9.79485 6.22727 9.75461 6.23806 9.71732 6.25965C9.68003 6.28026 9.6496 6.31118 9.62605 6.35239C9.60348 6.39263 9.59219 6.44072 9.59219 6.49665C9.59219 6.55259 9.60348 6.60166 9.62605 6.64386C9.6496 6.68606 9.68003 6.71844 9.71732 6.74101C9.75559 6.7626 9.79583 6.7734 9.83803 6.7734C9.88121 6.7734 9.92144 6.7626 9.95873 6.74101C9.99603 6.71942 10.026 6.68802 10.0485 6.6468C10.0721 6.6046 10.0839 6.55554 10.0839 6.4996ZM10.6414 5.81657V6.90588H10.4736V5.81657H10.6414ZM10.8058 6.49665C10.8058 6.4152 10.8224 6.34307 10.8558 6.28026C10.8902 6.21745 10.9363 6.16888 10.9942 6.13453C11.0531 6.0992 11.1178 6.08154 11.1885 6.08154C11.2523 6.08154 11.3077 6.09429 11.3548 6.11981C11.4029 6.14434 11.4412 6.17526 11.4697 6.21255V6.09478H11.6389V6.90588H11.4697V6.78518C11.4412 6.82345 11.4024 6.85534 11.3534 6.88086C11.3043 6.90637 11.2484 6.91913 11.1855 6.91913C11.1159 6.91913 11.0521 6.90147 10.9942 6.86614C10.9363 6.82983 10.8902 6.77978 10.8558 6.71599C10.8224 6.65122 10.8058 6.57811 10.8058 6.49665ZM11.4697 6.4996C11.4697 6.44366 11.4579 6.39508 11.4343 6.35386C11.4118 6.31265 11.3818 6.28124 11.3445 6.25965C11.3072 6.23806 11.267 6.22727 11.2238 6.22727C11.1806 6.22727 11.1404 6.23806 11.1031 6.25965C11.0658 6.28026 11.0354 6.31118 11.0118 6.35239C10.9893 6.39263 10.978 6.44072 10.978 6.49665C10.978 6.55259 10.9893 6.60166 11.0118 6.64386C11.0354 6.68606 11.0658 6.71844 11.1031 6.74101C11.1414 6.7626 11.1816 6.7734 11.2238 6.7734C11.267 6.7734 11.3072 6.7626 11.3445 6.74101C11.3818 6.71942 11.4118 6.68802 11.4343 6.6468C11.4579 6.6046 11.4697 6.55554 11.4697 6.4996ZM12.2686 6.08154C12.3324 6.08154 12.3893 6.09478 12.4393 6.12128C12.4904 6.14778 12.5301 6.18703 12.5586 6.23904C12.587 6.29106 12.6013 6.35386 12.6013 6.42747V6.90588H12.4349V6.45249C12.4349 6.37987 12.4168 6.32442 12.3805 6.28615C12.3442 6.2469 12.2946 6.22727 12.2318 6.22727C12.169 6.22727 12.1189 6.2469 12.0816 6.28615C12.0453 6.32442 12.0272 6.37987 12.0272 6.45249V6.90588H11.8594V6.09478H12.0272V6.18752C12.0547 6.15416 12.0895 6.12815 12.1317 6.1095C12.1749 6.09086 12.2205 6.08154 12.2686 6.08154ZM12.7594 6.4996C12.7594 6.41618 12.7761 6.34307 12.8094 6.28026C12.8438 6.21647 12.8909 6.16741 12.9508 6.13306C13.0106 6.09871 13.0793 6.08154 13.1568 6.08154C13.255 6.08154 13.3359 6.10509 13.3997 6.15219C13.4645 6.19832 13.5082 6.26456 13.5307 6.35092H13.3497C13.335 6.31068 13.3114 6.27928 13.279 6.25671C13.2466 6.23414 13.2059 6.22285 13.1568 6.22285C13.0881 6.22285 13.0332 6.24739 12.992 6.29645C12.9517 6.34454 12.9316 6.41226 12.9316 6.4996C12.9316 6.58694 12.9517 6.65514 12.992 6.70421C13.0332 6.75328 13.0881 6.77782 13.1568 6.77782C13.254 6.77782 13.3183 6.73513 13.3497 6.64975H13.5307C13.5072 6.73218 13.463 6.79793 13.3983 6.847C13.3335 6.89509 13.253 6.91913 13.1568 6.91913C13.0793 6.91913 13.0106 6.90196 12.9508 6.86761C12.8909 6.83228 12.8438 6.78321 12.8094 6.72041C12.7761 6.65662 12.7594 6.58301 12.7594 6.4996ZM14.4414 6.48046C14.4414 6.51088 14.4394 6.53836 14.4355 6.5629H13.8157C13.8207 6.62767 13.8447 6.67968 13.8879 6.71893C13.9311 6.75819 13.9841 6.77782 14.0469 6.77782C14.1371 6.77782 14.2009 6.74003 14.2382 6.66447H14.4193C14.3948 6.73905 14.3501 6.80039 14.2853 6.84847C14.2215 6.89558 14.1421 6.91913 14.0469 6.91913C13.9693 6.91913 13.8997 6.90196 13.8378 6.86761C13.777 6.83228 13.7289 6.78321 13.6936 6.72041C13.6592 6.65662 13.642 6.58301 13.642 6.4996C13.642 6.41618 13.6587 6.34307 13.6921 6.28026C13.7264 6.21647 13.774 6.16741 13.8349 6.13306C13.8967 6.09871 13.9674 6.08154 14.0469 6.08154C14.1234 6.08154 14.1916 6.09822 14.2515 6.13159C14.3113 6.16495 14.358 6.21206 14.3913 6.2729C14.4247 6.33277 14.4414 6.40195 14.4414 6.48046ZM14.2662 6.42747C14.2652 6.36564 14.2431 6.31608 14.2 6.27879C14.1568 6.2415 14.1033 6.22285 14.0395 6.22285C13.9816 6.22285 13.932 6.2415 13.8908 6.27879C13.8496 6.3151 13.8251 6.36466 13.8172 6.42747H14.2662Z" fill="white"/>
<circle cx="10.086" cy="12.8499" r="2.54891" fill="white" fill-opacity="0.43"/>
<circle cx="6.96493" cy="12.8499" r="2.54891" fill="white" fill-opacity="0.43"/>
<path d="M32.2226 10.6006L32.3054 10.7478L32.0534 10.8416L32.3054 10.9355L32.2208 11.0863L32.011 10.9207L32.0497 11.1876H31.8804L31.9154 10.9207L31.7056 11.09L31.6173 10.9336L31.8675 10.8398L31.6173 10.7496L31.7019 10.5987L31.9172 10.7643L31.8804 10.4957H32.0515L32.011 10.7643L32.2226 10.6006ZM33.1499 10.6006L33.2327 10.7478L32.9806 10.8416L33.2327 10.9355L33.148 11.0863L32.9383 10.9207L32.9769 11.1876H32.8076L32.8426 10.9207L32.6328 11.09L32.5445 10.9336L32.7947 10.8398L32.5445 10.7496L32.6291 10.5987L32.8444 10.7643L32.8076 10.4957H32.9787L32.9383 10.7643L33.1499 10.6006ZM34.0771 10.6006L34.1599 10.7478L33.9078 10.8416L34.1599 10.9355L34.0752 11.0863L33.8655 10.9207L33.9041 11.1876H33.7348L33.7698 10.9207L33.56 11.09L33.4717 10.9336L33.722 10.8398L33.4717 10.7496L33.5563 10.5987L33.7716 10.7643L33.7348 10.4957H33.906L33.8655 10.7643L34.0771 10.6006ZM35.0043 10.6006L35.0871 10.7478L34.835 10.8416L35.0871 10.9355L35.0025 11.0863L34.7927 10.9207L34.8313 11.1876H34.662L34.697 10.9207L34.4872 11.09L34.3989 10.9336L34.6492 10.8398L34.3989 10.7496L34.4836 10.5987L34.6989 10.7643L34.662 10.4957H34.8332L34.7927 10.7643L35.0043 10.6006ZM36.4095 10.6006L36.4923 10.7478L36.2402 10.8416L36.4923 10.9355L36.4077 11.0863L36.1979 10.9207L36.2365 11.1876H36.0673L36.1022 10.9207L35.8924 11.09L35.8041 10.9336L36.0544 10.8398L35.8041 10.7496L35.8888 10.5987L36.1041 10.7643L36.0673 10.4957H36.2384L36.1979 10.7643L36.4095 10.6006ZM37.3367 10.6006L37.4195 10.7478L37.1674 10.8416L37.4195 10.9355L37.3349 11.0863L37.1251 10.9207L37.1638 11.1876H36.9945L37.0294 10.9207L36.8197 11.09L36.7313 10.9336L36.9816 10.8398L36.7313 10.7496L36.816 10.5987L37.0313 10.7643L36.9945 10.4957H37.1656L37.1251 10.7643L37.3367 10.6006ZM38.2639 10.6006L38.3467 10.7478L38.0947 10.8416L38.3467 10.9355L38.2621 11.0863L38.0523 10.9207L38.091 11.1876H37.9217L37.9567 10.9207L37.7469 11.09L37.6586 10.9336L37.9088 10.8398L37.6586 10.7496L37.7432 10.5987L37.9585 10.7643L37.9217 10.4957H38.0928L38.0523 10.7643L38.2639 10.6006ZM39.1912 10.6006L39.274 10.7478L39.0219 10.8416L39.274 10.9355L39.1893 11.0863L38.9796 10.9207L39.0182 11.1876H38.8489L38.8839 10.9207L38.6741 11.09L38.5858 10.9336L38.836 10.8398L38.5858 10.7496L38.6704 10.5987L38.8857 10.7643L38.8489 10.4957H39.02L38.9796 10.7643L39.1912 10.6006ZM40.5964 10.6006L40.6792 10.7478L40.4271 10.8416L40.6792 10.9355L40.5945 11.0863L40.3848 10.9207L40.4234 11.1876H40.2541L40.2891 10.9207L40.0793 11.09L39.991 10.9336L40.2412 10.8398L39.991 10.7496L40.0756 10.5987L40.2909 10.7643L40.2541 10.4957H40.4252L40.3848 10.7643L40.5964 10.6006ZM41.5236 10.6006L41.6064 10.7478L41.3543 10.8416L41.6064 10.9355L41.5217 11.0863L41.312 10.9207L41.3506 11.1876H41.1813L41.2163 10.9207L41.0065 11.09L40.9182 10.9336L41.1685 10.8398L40.9182 10.7496L41.0028 10.5987L41.2181 10.7643L41.1813 10.4957H41.3525L41.312 10.7643L41.5236 10.6006ZM42.4508 10.6006L42.5336 10.7478L42.2815 10.8416L42.5336 10.9355L42.449 11.0863L42.2392 10.9207L42.2778 11.1876H42.1086L42.1435 10.9207L41.9337 11.09L41.8454 10.9336L42.0957 10.8398L41.8454 10.7496L41.9301 10.5987L42.1454 10.7643L42.1086 10.4957H42.2797L42.2392 10.7643L42.4508 10.6006ZM43.378 10.6006L43.4608 10.7478L43.2087 10.8416L43.4608 10.9355L43.3762 11.0863L43.1664 10.9207L43.2051 11.1876H43.0358L43.0707 10.9207L42.861 11.09L42.7726 10.9336L43.0229 10.8398L42.7726 10.7496L42.8573 10.5987L43.0726 10.7643L43.0358 10.4957H43.2069L43.1664 10.7643L43.378 10.6006ZM39.6775 13.6999V13.5086H40.0603V14.85H39.8487V13.6999H39.6775ZM40.4644 14.5648C40.5821 14.4629 40.6748 14.3795 40.7422 14.3145C40.8109 14.2483 40.868 14.1796 40.9133 14.1084C40.9587 14.0373 40.9814 13.9661 40.9814 13.895C40.9814 13.8214 40.9636 13.7637 40.9281 13.722C40.8937 13.6803 40.8391 13.6595 40.7643 13.6595C40.6919 13.6595 40.6355 13.6828 40.595 13.7294C40.5558 13.7748 40.5349 13.8361 40.5325 13.9134H40.33C40.3337 13.7735 40.3754 13.6668 40.4552 13.5932C40.5361 13.5184 40.6386 13.481 40.7625 13.481C40.8962 13.481 41.0004 13.5178 41.0753 13.5914C41.1513 13.665 41.1894 13.7631 41.1894 13.8858C41.1894 13.9741 41.1667 14.0594 41.1213 14.1416C41.0771 14.2225 41.0238 14.2955 40.9612 14.3605C40.8999 14.4243 40.8213 14.4985 40.7257 14.5832L40.6429 14.6568H41.2262V14.8316H40.3319V14.6788L40.4644 14.5648ZM41.4068 13.8398C41.4141 13.7257 41.4577 13.6368 41.5374 13.573C41.6184 13.5092 41.7214 13.4773 41.8465 13.4773C41.9324 13.4773 42.0066 13.4926 42.0692 13.5233C42.1317 13.554 42.179 13.5957 42.2109 13.6484C42.2428 13.7012 42.2587 13.7607 42.2587 13.8269C42.2587 13.903 42.2385 13.968 42.198 14.0219C42.1575 14.0759 42.109 14.1121 42.0526 14.1305V14.1379C42.125 14.16 42.1814 14.2004 42.2219 14.2593C42.2624 14.317 42.2826 14.3912 42.2826 14.482C42.2826 14.5543 42.2661 14.6187 42.2329 14.6752C42.1998 14.7316 42.1508 14.7764 42.0857 14.8095C42.0207 14.8414 41.9428 14.8573 41.8521 14.8573C41.7196 14.8573 41.6104 14.8236 41.5245 14.7561C41.4399 14.6874 41.3945 14.5893 41.3884 14.4617H41.5908C41.5957 14.5267 41.6208 14.5801 41.6662 14.6218C41.7116 14.6623 41.7729 14.6825 41.8502 14.6825C41.925 14.6825 41.9827 14.6623 42.0232 14.6218C42.0637 14.5801 42.0839 14.5267 42.0839 14.4617C42.0839 14.3759 42.0563 14.3151 42.0011 14.2796C41.9471 14.2428 41.8637 14.2244 41.7508 14.2244H41.703V14.0514H41.7527C41.8521 14.0502 41.9275 14.0336 41.979 14.0017C42.0318 13.9698 42.0581 13.9195 42.0581 13.8508C42.0581 13.7919 42.0391 13.7453 42.0011 13.711C41.9631 13.6754 41.9091 13.6576 41.8392 13.6576C41.7705 13.6576 41.7171 13.6754 41.6791 13.711C41.6411 13.7453 41.6184 13.7883 41.611 13.8398H41.4068ZM42.4772 14.5703V14.412L43.0955 13.5251H43.3494V14.3881H43.5205V14.5703H43.3494V14.85H43.1433V14.5703H42.4772ZM43.1525 13.7386L42.7183 14.3881H43.1525V13.7386Z" fill="white"/>
<path d="M5.28416 18.8989L4.94798 19.7941H4.77796L4.44049 18.8989H4.59763L4.86297 19.6434L5.12959 18.8989H5.28416ZM5.94664 19.6112H5.57182L5.50742 19.7941H5.35414L5.67487 18.8976H5.84489L6.16561 19.7941H6.01105L5.94664 19.6112ZM5.90543 19.4914L5.75988 19.0753L5.61304 19.4914H5.90543ZM6.4519 19.6756H6.75459V19.7941H6.30506V18.8989H6.4519V19.6756ZM7.02422 18.8989V19.7941H6.87739V18.8989H7.02422ZM7.50939 18.8989C7.60471 18.8989 7.688 18.9173 7.75928 18.9543C7.83141 18.9903 7.88679 19.0427 7.92543 19.1114C7.96493 19.1792 7.98468 19.2587 7.98468 19.3497C7.98468 19.4407 7.96493 19.5197 7.92543 19.5867C7.88679 19.6537 7.83141 19.7052 7.75928 19.7413C7.688 19.7765 7.60471 19.7941 7.50939 19.7941H7.21701V18.8989H7.50939ZM7.50939 19.6743C7.61416 19.6743 7.69444 19.6459 7.75026 19.5893C7.80607 19.5326 7.83398 19.4527 7.83398 19.3497C7.83398 19.2458 7.80607 19.1646 7.75026 19.1063C7.69444 19.0479 7.61416 19.0187 7.50939 19.0187H7.36385V19.6743H7.50939ZM9.04313 18.8989V19.0187H8.80484V19.7941H8.65801V19.0187H8.41843V18.8989H9.04313ZM9.90671 18.8989V19.7941H9.75987V19.4025H9.33868V19.7941H9.19184V18.8989H9.33868V19.2827H9.75987V18.8989H9.90671ZM10.565 19.7941L10.3589 19.436H10.2469V19.7941H10.1V18.8989H10.4091C10.4778 18.8989 10.5358 18.9109 10.583 18.9349C10.6311 18.959 10.6668 18.9912 10.6899 19.0315C10.714 19.0719 10.726 19.117 10.726 19.1668C10.726 19.2252 10.7088 19.2784 10.6745 19.3265C10.641 19.3737 10.589 19.4059 10.5186 19.4231L10.7402 19.7941H10.565ZM10.2469 19.3188H10.4091C10.4641 19.3188 10.5053 19.305 10.5328 19.2776C10.5611 19.2501 10.5753 19.2132 10.5753 19.1668C10.5753 19.1204 10.5616 19.0844 10.5341 19.0586C10.5066 19.032 10.465 19.0187 10.4091 19.0187H10.2469V19.3188ZM11.0594 18.8989V19.4695C11.0594 19.5373 11.077 19.5884 11.1122 19.6228C11.1483 19.6571 11.1981 19.6743 11.2616 19.6743C11.326 19.6743 11.3758 19.6571 11.411 19.6228C11.4471 19.5884 11.4651 19.5373 11.4651 19.4695V18.8989H11.612V19.4669C11.612 19.5399 11.5961 19.6017 11.5643 19.6524C11.5325 19.703 11.49 19.7408 11.4368 19.7657C11.3836 19.7906 11.3247 19.8031 11.2603 19.8031C11.1959 19.8031 11.1371 19.7906 11.0839 19.7657C11.0315 19.7408 10.9898 19.703 10.9589 19.6524C10.928 19.6017 10.9126 19.5399 10.9126 19.4669V18.8989H11.0594Z" fill="white" fill-opacity="0.6"/>
<path d="M4.50434 22.5436C4.50434 22.3738 4.5328 22.2413 4.58972 22.1461C4.64762 22.0499 4.74674 22.0019 4.88707 22.0019C5.02741 22.0019 5.12603 22.0499 5.18295 22.1461C5.24085 22.2413 5.2698 22.3738 5.2698 22.5436C5.2698 22.7153 5.24085 22.8498 5.18295 22.9469C5.12603 23.0431 5.02741 23.0912 4.88707 23.0912C4.74674 23.0912 4.64762 23.0431 4.58972 22.9469C4.5328 22.8498 4.50434 22.7153 4.50434 22.5436ZM5.10494 22.5436C5.10494 22.4641 5.09954 22.3969 5.08874 22.3419C5.07893 22.2869 5.05832 22.2423 5.02692 22.2079C4.99551 22.1726 4.9489 22.1549 4.88707 22.1549C4.82525 22.1549 4.77863 22.1726 4.74723 22.2079C4.71582 22.2423 4.69472 22.2869 4.68393 22.3419C4.67412 22.3969 4.66921 22.4641 4.66921 22.5436C4.66921 22.626 4.67412 22.6952 4.68393 22.7511C4.69374 22.8071 4.71435 22.8522 4.74575 22.8866C4.77814 22.9209 4.82525 22.9381 4.88707 22.9381C4.9489 22.9381 4.99551 22.9209 5.02692 22.8866C5.0593 22.8522 5.0804 22.8071 5.09021 22.7511C5.10003 22.6952 5.10494 22.626 5.10494 22.5436ZM5.62843 22.5333C5.52637 22.4822 5.47534 22.4018 5.47534 22.2918C5.47534 22.2389 5.48859 22.1903 5.51509 22.1461C5.54158 22.102 5.58133 22.0671 5.63432 22.0416C5.68732 22.0151 5.75209 22.0019 5.82863 22.0019C5.9042 22.0019 5.96848 22.0151 6.02147 22.0416C6.07545 22.0671 6.11568 22.102 6.14218 22.1461C6.16868 22.1903 6.18192 22.2389 6.18192 22.2918C6.18192 22.3468 6.16769 22.3954 6.13923 22.4376C6.11176 22.4788 6.07496 22.5107 6.02883 22.5333C6.08477 22.5539 6.12893 22.5877 6.16132 22.6348C6.1937 22.681 6.20989 22.7354 6.20989 22.7982C6.20989 22.862 6.1937 22.9185 6.16132 22.9675C6.12893 23.0166 6.08379 23.0544 6.02589 23.0809C5.96799 23.1074 5.90223 23.1206 5.82863 23.1206C5.75503 23.1206 5.68928 23.1074 5.63138 23.0809C5.57446 23.0544 5.52981 23.0166 5.49742 22.9675C5.46504 22.9185 5.44884 22.862 5.44884 22.7982C5.44884 22.7344 5.46504 22.6795 5.49742 22.6334C5.52981 22.5872 5.57348 22.5539 5.62843 22.5333ZM6.02147 22.3125C6.02147 22.2575 6.0043 22.2153 5.96995 22.1859C5.9356 22.1564 5.8885 22.1417 5.82863 22.1417C5.76975 22.1417 5.72314 22.1564 5.68879 22.1859C5.65444 22.2153 5.63727 22.258 5.63727 22.3139C5.63727 22.363 5.65493 22.4032 5.69026 22.4346C5.72657 22.4651 5.77269 22.4803 5.82863 22.4803C5.88457 22.4803 5.93069 22.4646 5.967 22.4332C6.00332 22.4018 6.02147 22.3615 6.02147 22.3125ZM5.82863 22.6069C5.76386 22.6069 5.71087 22.6231 5.66965 22.6554C5.62941 22.6868 5.6093 22.7325 5.6093 22.7923C5.6093 22.8483 5.62892 22.8939 5.66818 22.9292C5.70743 22.9636 5.76092 22.9808 5.82863 22.9808C5.89537 22.9808 5.94787 22.9631 5.98614 22.9278C6.0254 22.8924 6.04502 22.8473 6.04502 22.7923C6.04502 22.7335 6.02491 22.6878 5.98467 22.6554C5.94541 22.6231 5.8934 22.6069 5.82863 22.6069ZM6.95283 21.7045L6.55243 23.3517H6.38756L6.78649 21.7045H6.95283ZM7.23498 22.8659C7.32919 22.7845 7.40329 22.7178 7.45726 22.6657C7.51222 22.6128 7.55785 22.5578 7.59416 22.5009C7.63047 22.444 7.64863 22.387 7.64863 22.3301C7.64863 22.2712 7.6344 22.2251 7.60594 22.1917C7.57846 22.1584 7.53479 22.1417 7.47492 22.1417C7.41702 22.1417 7.37188 22.1603 7.3395 22.1976C7.30809 22.2339 7.29141 22.283 7.28945 22.3448H7.12752C7.13046 22.233 7.16383 22.1476 7.22762 22.0887C7.29239 22.0288 7.37433 21.9989 7.47345 21.9989C7.58042 21.9989 7.66384 22.0284 7.7237 22.0872C7.78455 22.1461 7.81497 22.2246 7.81497 22.3228C7.81497 22.3934 7.79681 22.4616 7.7605 22.5274C7.72517 22.5921 7.68248 22.6505 7.63243 22.7026C7.58337 22.7536 7.52056 22.813 7.44401 22.8807L7.37777 22.9396H7.84441V23.0794H7.12899V22.9572L7.23498 22.8659ZM7.96975 22.1741V22.021H8.27594V23.0941H8.10665V22.1741H7.96975Z" fill="white"/>
<path d="M21.0506 19.3445C21.0506 19.257 21.0708 19.1784 21.1111 19.1088C21.1523 19.0393 21.2077 18.9852 21.2773 18.9465C21.3477 18.907 21.4245 18.8873 21.5078 18.8873C21.6032 18.8873 21.6877 18.9109 21.7616 18.9581C21.8363 19.0045 21.8904 19.0706 21.9239 19.1565H21.7474C21.7242 19.1093 21.692 19.0741 21.6508 19.0509C21.6096 19.0277 21.5619 19.0161 21.5078 19.0161C21.4486 19.0161 21.3958 19.0294 21.3494 19.056C21.303 19.0826 21.2665 19.1208 21.2399 19.1707C21.2142 19.2205 21.2013 19.2784 21.2013 19.3445C21.2013 19.4107 21.2142 19.4686 21.2399 19.5184C21.2665 19.5682 21.303 19.6069 21.3494 19.6343C21.3958 19.661 21.4486 19.6743 21.5078 19.6743C21.5619 19.6743 21.6096 19.6627 21.6508 19.6395C21.692 19.6163 21.7242 19.5811 21.7474 19.5339H21.9239C21.8904 19.6198 21.8363 19.6859 21.7616 19.7322C21.6877 19.7786 21.6032 19.8018 21.5078 19.8018C21.4237 19.8018 21.3468 19.7825 21.2773 19.7438C21.2077 19.7043 21.1523 19.6498 21.1111 19.5803C21.0708 19.5107 21.0506 19.4321 21.0506 19.3445ZM22.6354 19.6112H22.2606L22.1962 19.7941H22.0429L22.3637 18.8976H22.5337L22.8544 19.7941H22.6998L22.6354 19.6112ZM22.5942 19.4914L22.4487 19.0753L22.3018 19.4914H22.5942ZM23.4588 19.7941L23.2528 19.436H23.1407V19.7941H22.9939V18.8989H23.303C23.3717 18.8989 23.4297 18.9109 23.4769 18.9349C23.525 18.959 23.5606 18.9912 23.5838 19.0315C23.6078 19.0719 23.6199 19.117 23.6199 19.1668C23.6199 19.2252 23.6027 19.2784 23.5683 19.3265C23.5348 19.3737 23.4829 19.4059 23.4125 19.4231L23.634 19.7941H23.4588ZM23.1407 19.3188H23.303C23.358 19.3188 23.3992 19.305 23.4266 19.2776C23.455 19.2501 23.4692 19.2132 23.4692 19.1668C23.4692 19.1204 23.4554 19.0844 23.4279 19.0586C23.4005 19.032 23.3588 19.0187 23.303 19.0187H23.1407V19.3188ZM24.1001 18.8989C24.1954 18.8989 24.2787 18.9173 24.35 18.9543C24.4221 18.9903 24.4775 19.0427 24.5161 19.1114C24.5556 19.1792 24.5754 19.2587 24.5754 19.3497C24.5754 19.4407 24.5556 19.5197 24.5161 19.5867C24.4775 19.6537 24.4221 19.7052 24.35 19.7413C24.2787 19.7765 24.1954 19.7941 24.1001 19.7941H23.8077V18.8989H24.1001ZM24.1001 19.6743C24.2048 19.6743 24.2851 19.6459 24.3409 19.5893C24.3968 19.5326 24.4247 19.4527 24.4247 19.3497C24.4247 19.2458 24.3968 19.1646 24.3409 19.1063C24.2851 19.0479 24.2048 19.0187 24.1001 19.0187H23.9545V19.6743H24.1001ZM25.7704 18.8989V19.7941H25.6235V19.4025H25.2023V19.7941H25.0555V18.8989H25.2023V19.2827H25.6235V18.8989H25.7704ZM26.372 19.8031C26.2887 19.8031 26.2118 19.7838 26.1414 19.7451C26.0719 19.7056 26.0165 19.6511 25.9753 19.5815C25.9349 19.5111 25.9147 19.4321 25.9147 19.3445C25.9147 19.257 25.9349 19.1784 25.9753 19.1088C26.0165 19.0393 26.0719 18.9852 26.1414 18.9465C26.2118 18.907 26.2887 18.8873 26.372 18.8873C26.4561 18.8873 26.533 18.907 26.6025 18.9465C26.6729 18.9852 26.7283 19.0393 26.7687 19.1088C26.809 19.1784 26.8292 19.257 26.8292 19.3445C26.8292 19.4321 26.809 19.5111 26.7687 19.5815C26.7283 19.6511 26.6729 19.7056 26.6025 19.7451C26.533 19.7838 26.4561 19.8031 26.372 19.8031ZM26.372 19.6756C26.4312 19.6756 26.484 19.6623 26.5304 19.6356C26.5768 19.6082 26.6128 19.5695 26.6386 19.5197C26.6652 19.4691 26.6785 19.4107 26.6785 19.3445C26.6785 19.2784 26.6652 19.2205 26.6386 19.1707C26.6128 19.1208 26.5768 19.0826 26.5304 19.056C26.484 19.0294 26.4312 19.0161 26.372 19.0161C26.3127 19.0161 26.2599 19.0294 26.2135 19.056C26.1672 19.0826 26.1307 19.1208 26.1041 19.1707C26.0783 19.2205 26.0654 19.2784 26.0654 19.3445C26.0654 19.4107 26.0783 19.4691 26.1041 19.5197C26.1307 19.5695 26.1672 19.6082 26.2135 19.6356C26.2599 19.6623 26.3127 19.6756 26.372 19.6756ZM27.1206 19.6756H27.4232V19.7941H26.9737V18.8989H27.1206V19.6756ZM27.8384 18.8989C27.9337 18.8989 28.017 18.9173 28.0883 18.9543C28.1604 18.9903 28.2158 19.0427 28.2545 19.1114C28.294 19.1792 28.3137 19.2587 28.3137 19.3497C28.3137 19.4407 28.294 19.5197 28.2545 19.5867C28.2158 19.6537 28.1604 19.7052 28.0883 19.7413C28.017 19.7765 27.9337 19.7941 27.8384 19.7941H27.546V18.8989H27.8384ZM27.8384 19.6743C27.9432 19.6743 28.0235 19.6459 28.0793 19.5893C28.1351 19.5326 28.163 19.4527 28.163 19.3497C28.163 19.2458 28.1351 19.1646 28.0793 19.1063C28.0235 19.0479 27.9432 19.0187 27.8384 19.0187H27.6929V19.6743H27.8384ZM28.6061 19.0174V19.2801H28.9152V19.3999H28.6061V19.6743H28.9539V19.7941H28.4592V18.8976H28.9539V19.0174H28.6061ZM29.5997 19.7941L29.3936 19.436H29.2816V19.7941H29.1347V18.8989H29.4438C29.5125 18.8989 29.5705 18.9109 29.6177 18.9349C29.6658 18.959 29.7015 18.9912 29.7246 19.0315C29.7487 19.0719 29.7607 19.117 29.7607 19.1668C29.7607 19.2252 29.7435 19.2784 29.7092 19.3265C29.6757 19.3737 29.6237 19.4059 29.5533 19.4231L29.7749 19.7941H29.5997ZM29.2816 19.3188H29.4438C29.4988 19.3188 29.54 19.305 29.5675 19.2776C29.5958 19.2501 29.61 19.2132 29.61 19.1668C29.61 19.1204 29.5963 19.0844 29.5688 19.0586C29.5413 19.032 29.4997 19.0187 29.4438 19.0187H29.2816V19.3188Z" fill="white" fill-opacity="0.6"/>
<path d="M21.7154 22.071V22.2079H21.2811V22.5097H21.6197V22.6466H21.2811V23.0941H21.1133V22.071H21.7154ZM22.0387 22.4008C22.0633 22.3596 22.0957 22.3277 22.1359 22.3051C22.1771 22.2815 22.2257 22.2698 22.2816 22.2698V22.4435H22.2389C22.1732 22.4435 22.1231 22.4602 22.0888 22.4935C22.0554 22.5269 22.0387 22.5848 22.0387 22.6672V23.0941H21.8709V22.283H22.0387V22.4008ZM22.3799 22.6849C22.3799 22.6034 22.3966 22.5313 22.43 22.4685C22.4643 22.4057 22.5105 22.3571 22.5684 22.3228C22.6272 22.2874 22.692 22.2698 22.7627 22.2698C22.8265 22.2698 22.8819 22.2825 22.929 22.308C22.9771 22.3326 23.0154 22.3635 23.0438 22.4008V22.283H23.2131V23.0941H23.0438V22.9734C23.0154 23.0117 22.9766 23.0436 22.9275 23.0691C22.8785 23.0946 22.8225 23.1074 22.7597 23.1074C22.6901 23.1074 22.6263 23.0897 22.5684 23.0544C22.5105 23.0181 22.4643 22.968 22.43 22.9042C22.3966 22.8395 22.3799 22.7663 22.3799 22.6849ZM23.0438 22.6878C23.0438 22.6319 23.0321 22.5833 23.0085 22.5421C22.9859 22.5009 22.956 22.4695 22.9187 22.4479C22.8814 22.4263 22.8412 22.4155 22.798 22.4155C22.7548 22.4155 22.7146 22.4263 22.6773 22.4479C22.64 22.4685 22.6096 22.4994 22.586 22.5406C22.5635 22.5809 22.5522 22.6289 22.5522 22.6849C22.5522 22.7408 22.5635 22.7899 22.586 22.8321C22.6096 22.8743 22.64 22.9067 22.6773 22.9292C22.7156 22.9508 22.7558 22.9616 22.798 22.9616C22.8412 22.9616 22.8814 22.9508 22.9187 22.9292C22.956 22.9077 22.9859 22.8763 23.0085 22.835C23.0321 22.7928 23.0438 22.7438 23.0438 22.6878ZM23.8428 22.2698C23.9066 22.2698 23.9635 22.283 24.0135 22.3095C24.0646 22.336 24.1043 22.3753 24.1328 22.4273C24.1612 22.4793 24.1755 22.5421 24.1755 22.6157V23.0941H24.0091V22.6407C24.0091 22.5681 23.991 22.5127 23.9546 22.4744C23.9183 22.4351 23.8688 22.4155 23.806 22.4155C23.7432 22.4155 23.6931 22.4351 23.6558 22.4744C23.6195 22.5127 23.6014 22.5681 23.6014 22.6407V23.0941H23.4335V22.283H23.6014V22.3758C23.6288 22.3424 23.6637 22.3164 23.7059 22.2977C23.749 22.2791 23.7947 22.2698 23.8428 22.2698ZM24.7104 22.6893L25.0843 23.0941H24.8576L24.5573 22.7452V23.0941H24.3895V22.0048H24.5573V22.6378L24.8517 22.283H25.0843L24.7104 22.6893ZM25.3724 22.0048V23.0941H25.2046V22.0048H25.3724ZM25.6781 22.1756C25.6477 22.1756 25.6222 22.1653 25.6016 22.1446C25.581 22.124 25.5707 22.0985 25.5707 22.0681C25.5707 22.0377 25.581 22.0122 25.6016 21.9916C25.6222 21.9709 25.6477 21.9606 25.6781 21.9606C25.7076 21.9606 25.7326 21.9709 25.7532 21.9916C25.7738 22.0122 25.7841 22.0377 25.7841 22.0681C25.7841 22.0985 25.7738 22.124 25.7532 22.1446C25.7326 22.1653 25.7076 22.1756 25.6781 22.1756ZM25.7606 22.283V23.0941H25.5927V22.283H25.7606ZM26.3901 22.2698C26.4539 22.2698 26.5108 22.283 26.5609 22.3095C26.6119 22.336 26.6516 22.3753 26.6801 22.4273C26.7086 22.4793 26.7228 22.5421 26.7228 22.6157V23.0941H26.5564V22.6407C26.5564 22.5681 26.5383 22.5127 26.502 22.4744C26.4657 22.4351 26.4161 22.4155 26.3533 22.4155C26.2905 22.4155 26.2404 22.4351 26.2032 22.4744C26.1668 22.5127 26.1487 22.5681 26.1487 22.6407V23.0941H25.9809V22.283H26.1487V22.3758C26.1762 22.3424 26.211 22.3164 26.2532 22.2977C26.2964 22.2791 26.342 22.2698 26.3901 22.2698ZM27.8771 22.071V22.8085C27.8771 22.8998 27.8492 22.9719 27.7932 23.0249C27.7383 23.0779 27.6657 23.1044 27.5754 23.1044C27.4851 23.1044 27.412 23.0779 27.356 23.0249C27.3011 22.9719 27.2736 22.8998 27.2736 22.8085H27.4429C27.4439 22.8537 27.4552 22.8895 27.4767 22.916C27.4993 22.9425 27.5322 22.9557 27.5754 22.9557C27.6186 22.9557 27.6514 22.9425 27.674 22.916C27.6966 22.8885 27.7079 22.8527 27.7079 22.8085V22.071H27.8771ZM28.318 22.4008C28.3425 22.3596 28.3749 22.3277 28.4151 22.3051C28.4563 22.2815 28.5049 22.2698 28.5608 22.2698V22.4435H28.5181C28.4524 22.4435 28.4023 22.4602 28.368 22.4935C28.3346 22.5269 28.318 22.5848 28.318 22.6672V23.0941H28.1501V22.283H28.318V22.4008ZM28.7828 23.1044C28.7524 23.1044 28.7269 23.0941 28.7063 23.0735C28.6857 23.0529 28.6753 23.0274 28.6753 22.997C28.6753 22.9665 28.6857 22.941 28.7063 22.9204C28.7269 22.8998 28.7524 22.8895 28.7828 22.8895C28.8122 22.8895 28.8373 22.8998 28.8579 22.9204C28.8785 22.941 28.8888 22.9665 28.8888 22.997C28.8888 23.0274 28.8785 23.0529 28.8579 23.0735C28.8373 23.0941 28.8122 23.1044 28.7828 23.1044Z" fill="white"/>
</svg>
