<svg width="98" height="34" viewBox="0 0 98 34" fill="none" xmlns="http://www.w3.org/2000/svg">
<path d="M13.2926 15.7039V12.3598H24.4864C24.6006 12.9498 24.6683 13.6494 24.6683 14.4096C24.6683 16.9166 23.9827 20.0205 21.7719 22.2313C19.6217 24.47 16.8769 25.664 13.2343 25.664C6.48768 25.664 0.816162 20.1721 0.816162 13.4255C0.816162 6.67891 6.48768 1.18695 13.2343 1.18695C16.9655 1.18695 19.6217 2.64914 21.6226 4.55908L19.2649 6.91677C17.8331 5.57352 15.8928 4.52876 13.2343 4.52876C8.30901 4.52876 4.45881 8.4979 4.45881 13.4255C4.45881 18.3531 8.30901 22.3222 13.2343 22.3222C16.4292 22.3222 18.2482 21.0396 19.4142 19.8736C20.3633 18.9244 20.9883 17.5649 21.2308 15.7039H13.2926Z" fill="#4285F4"/>
<path d="M41.7249 17.7818C41.7249 22.32 38.1732 25.6618 33.8146 25.6618C29.456 25.6618 25.9043 22.3176 25.9043 17.7818C25.9043 13.2157 29.456 9.90186 33.8146 9.90186C38.1732 9.90186 41.7249 13.2157 41.7249 17.7818ZM38.2618 17.7818C38.2618 14.9461 36.2026 13.0058 33.8146 13.0058C31.4266 13.0058 29.3674 14.9461 29.3674 17.7818C29.3674 20.5873 31.4266 22.5578 33.8146 22.5578C36.2026 22.5602 38.2618 20.5896 38.2618 17.7818Z" fill="#EA4335"/>
<path d="M58.7488 17.7818C58.7488 22.32 55.1971 25.6618 50.8385 25.6618C46.4799 25.6618 42.9282 22.3176 42.9282 17.7818C42.9282 13.2157 46.4799 9.90186 50.8385 9.90186C55.1971 9.90186 58.7488 13.2157 58.7488 17.7818ZM55.2857 17.7818C55.2857 14.9461 53.2265 13.0058 50.8385 13.0058C48.4505 13.0058 46.3913 14.9461 46.3913 17.7818C46.3913 20.5873 48.4505 22.5578 50.8385 22.5578C53.2265 22.5602 55.2857 20.5896 55.2857 17.7818Z" fill="#FBBC05"/>
<path d="M75.0917 10.3753V24.5284C75.0917 30.3492 71.6589 32.7372 67.5988 32.7372C63.779 32.7372 61.4796 30.1696 60.6144 28.0801L63.6297 26.8255C64.1661 28.1081 65.4813 29.6309 67.5988 29.6309C70.1967 29.6309 71.8082 28.0195 71.8082 25.0042V23.8708H71.6892C70.9127 24.8269 69.4202 25.6618 67.5405 25.6618C63.5994 25.6618 59.9871 22.229 59.9871 17.8098C59.9871 13.3626 63.5994 9.89954 67.5405 9.89954C69.4202 9.89954 70.9127 10.7344 71.6892 11.6602H71.8082V10.3729H75.0917V10.3753ZM72.046 17.8121C72.046 15.0347 70.1944 13.0058 67.8367 13.0058C65.4487 13.0058 63.4478 15.0347 63.4478 17.8121C63.4478 20.5593 65.4487 22.5579 67.8367 22.5579C70.1967 22.5602 72.046 20.5593 72.046 17.8121Z" fill="#4285F4"/>
<path d="M80.9218 2.09888V25.1861H77.4587V2.09888H80.9218Z" fill="#34A853"/>
<path d="M94.0606 20.3798L96.7471 22.1708C95.8819 23.4534 93.7924 25.6642 90.1801 25.6642C85.7025 25.6642 82.3584 22.2011 82.3584 17.7842C82.3584 13.0968 85.7305 9.90424 89.7906 9.90424C93.881 9.90424 95.8796 13.1574 96.5372 14.9181L96.8963 15.8136L86.3578 20.1722C87.1647 21.7533 88.417 22.5602 90.1777 22.5602C91.9408 22.5602 93.1651 21.6927 94.0606 20.3798ZM85.7912 17.544L92.8363 14.6196C92.4491 13.6355 91.2831 12.9475 89.9119 12.9475C88.1489 12.9475 85.7025 14.4984 85.7912 17.544Z" fill="#EA4335"/>
</svg>
