<svg width="42" height="19" viewBox="0 0 42 19" fill="none" xmlns="http://www.w3.org/2000/svg">
<g id="stripe logo" clip-path="url(#clip0_1077_5024)">
<path id="Stripe_Logo" d="M36.526 8.95503C36.6092 7.62276 36.9726 7.00204 37.6539 7.00204C38.3276 7.00204 38.6758 7.6379 38.7212 8.95503H36.526ZM41.5144 9.74985C41.5144 8.26619 41.1889 7.08531 40.5531 6.26021C39.9021 5.41997 38.9331 4.9885 37.6993 4.9885C35.171 4.9885 33.5965 6.85822 33.5965 9.85583C33.5965 11.5363 34.0128 12.7929 34.8455 13.5953C35.5873 14.3144 36.6547 14.6777 38.0323 14.6777C39.3041 14.6777 40.4774 14.375 41.2192 13.8829L40.8937 11.8467C40.1594 12.2403 39.3116 12.4598 38.3503 12.4598C37.775 12.4598 37.3813 12.3387 37.0937 12.0889C36.7833 11.824 36.6017 11.3925 36.5411 10.7793H41.469C41.4917 10.6355 41.5144 9.96181 41.5144 9.74985ZM29.6148 11.7634C29.3726 12.2176 29.0017 12.4598 28.5702 12.4598C28.2674 12.4598 28.01 12.3993 27.7678 12.2781V7.84228C28.275 7.3124 28.7291 7.25184 28.8957 7.25184C29.6527 7.25184 30.0236 8.06937 30.0236 9.65902C30.0236 10.575 29.8949 11.2865 29.6148 11.7634ZM32.0901 6.01041C31.5602 5.32913 30.8335 4.9885 29.8949 4.9885C29.0319 4.9885 28.275 5.35184 27.571 6.10125L27.412 5.1626H24.8005V17.9479L27.7754 17.4558V14.4582C28.2295 14.602 28.6989 14.6777 29.1152 14.6777C29.857 14.6777 30.9395 14.4885 31.7797 13.5726C32.5821 12.6945 32.9909 11.3395 32.9909 9.55304C32.9833 7.97097 32.6881 6.77495 32.0901 6.01041ZM20.6371 5.17017H23.6196V14.5036H20.6371V5.17017ZM22.1359 4.24666C22.9989 4.24666 23.6953 3.54268 23.6953 2.67216C23.6953 1.79407 22.9989 1.09766 22.1359 1.09766C21.2578 1.09766 20.5614 1.79407 20.5614 2.67216C20.569 3.53511 21.2654 4.24666 22.1359 4.24666ZM19.3578 5.04148C18.5176 5.04148 17.8439 5.48053 17.5865 6.27535L17.4048 5.17017H14.8009V14.5036H17.7758V8.44786C18.1467 7.99368 18.6766 7.82714 19.3957 7.82714C19.5546 7.82714 19.7212 7.82714 19.9256 7.86499V5.10961C19.7136 5.06419 19.5319 5.04148 19.3578 5.04148ZM13.6503 7.37296L14.0136 5.1626H12.1136V2.49049L9.5626 2.91439L9.19168 5.17017L8.29089 5.31399L7.95782 7.37296H9.19168V11.7028C9.19168 12.8307 9.47933 13.6104 10.0698 14.0873C10.5618 14.4809 11.2658 14.6777 12.265 14.6777C13.0295 14.6777 13.4989 14.5491 13.8244 14.4582V12.1192C13.6427 12.1646 13.2339 12.2479 12.9614 12.2479C12.371 12.2479 12.1212 11.9451 12.1212 11.2638V7.37296H13.6503ZM5.13431 8.68252C4.25622 8.35702 3.77933 8.10722 3.77933 7.7136C3.77933 7.38053 4.05184 7.18372 4.54387 7.18372C5.44467 7.18372 6.36818 7.53192 7.00403 7.84228L7.36738 5.62435C6.86021 5.38212 5.83073 4.9885 4.40762 4.9885C3.40084 4.9885 2.5606 5.25344 1.9626 5.74547C1.33431 6.26021 1.00881 7.00204 1.00881 7.90284C1.00881 9.53033 2.00045 10.2267 3.62037 10.8172C4.66499 11.1881 5.0132 11.453 5.0132 11.8618C5.0132 12.2554 4.68013 12.4825 4.06698 12.4825C3.31001 12.4825 2.061 12.1116 1.25104 11.6347L0.887695 13.8754C1.58411 14.269 2.87853 14.6777 4.21837 14.6777C5.28571 14.6777 6.17136 14.4279 6.76937 13.9435C7.44308 13.4136 7.79129 12.6339 7.79129 11.6271C7.79129 9.96181 6.77694 9.26539 5.13431 8.68252Z" fill="black"/>
</g>
<defs>
<clipPath id="clip0_1077_5024">
<rect width="40.8765" height="18.9243" fill="white" transform="translate(0.811523)"/>
</clipPath>
</defs>
</svg>
