<svg width="47" height="30" viewBox="0 0 47 30" fill="none" xmlns="http://www.w3.org/2000/svg">
<g id="visa logo">
<path id="Vector" d="M17.5926 20.9238L19.5941 9.17823H22.7956L20.7926 20.9238H17.5926ZM32.3592 9.43143C31.7251 9.19347 30.7311 8.93811 29.4899 8.93811C26.3264 8.93811 24.0982 10.5312 24.0791 12.8144C24.0613 14.5021 25.67 15.4437 26.8843 16.0054C28.1306 16.5813 28.5494 16.9484 28.5434 17.4624C28.5355 18.2498 27.5483 18.6093 26.628 18.6093C25.3467 18.6093 24.6659 18.4313 23.6145 17.9929L23.2018 17.8063L22.7526 20.4356C23.5004 20.7636 24.8831 21.0476 26.3189 21.0623C29.6843 21.0623 31.869 19.4874 31.8938 17.0492C31.9058 15.713 31.0529 14.6963 29.2058 13.8579C28.0868 13.3146 27.4015 12.952 27.4087 12.4018C27.4087 11.9136 27.9888 11.3915 29.2423 11.3915C30.2891 11.3753 31.0476 11.6036 31.6385 11.8415L31.9253 11.9771L32.3592 9.43143ZM40.5978 9.17805H38.124C37.3577 9.17805 36.7841 9.38721 36.4476 10.1521L31.6929 20.9161H35.0548C35.0548 20.9161 35.6043 19.4688 35.7286 19.151C36.096 19.151 39.3619 19.1561 39.8288 19.1561C39.9245 19.5673 40.2183 20.9161 40.2183 20.9161H43.189L40.5978 9.17769V9.17805ZM36.6728 16.7627C36.9376 16.0859 37.9484 13.4792 37.9484 13.4792C37.9295 13.5105 38.2112 12.7992 38.3728 12.3582L38.5892 13.3709C38.5892 13.3709 39.2022 16.1746 39.3304 16.7625H36.6728V16.7627ZM14.8748 9.17805L11.7404 17.1881L11.4065 15.5603C10.823 13.6839 9.00504 11.6509 6.97266 10.6331L9.83868 20.9051L13.226 20.9013L18.2662 9.17793L14.8748 9.17787" fill="#0E4595"/>
<path id="Vector_2" d="M8.81471 9.17761H3.65225L3.61133 9.42199C7.62767 10.3942 10.2851 12.7438 11.3885 15.5672L10.266 10.1696C10.0722 9.42583 9.51017 9.20383 8.81483 9.17791" fill="#F2AE14"/>
</g>
</svg>
